<?xml version="1.0" encoding="utf-8"?>
<!-- Generator: Adobe Illustrator 20.1.0, SVG Export Plug-In . SVG Version: 6.00 Build 0)  -->
<svg version="1.1" id="Layer_1" xmlns="http://www.w3.org/2000/svg" xmlns:xlink="http://www.w3.org/1999/xlink" x="0px" y="0px"
	 viewBox="0 0 1000 1027.5" style="enable-background:new 0 0 1000 1027.5;" xml:space="preserve">
<style type="text/css">
	.st0{fill:#464342;}
	.st1{font-family:'OpenSans-Bold';}
	.st2{font-size:20.7597px;}
	.st3{fill:none;}
	.st4{fill:#7AC943;}
	.st5{font-size:83.0387px;}
	.st6{fill:#662D91;}
	.st7{fill:#00618A;}
	.st8{fill:#E48E00;}
	.st9{font-size:27.6796px;}
	.st10{fill:#808080;}
	.st11{fill:#0071BC;}
	.st12{fill:#4D4D4D;}
	.st13{fill:#F7931E;}
	.st14{fill:none;stroke:#3FA9F5;stroke-width:2;stroke-miterlimit:10;}
	.st15{fill:none;stroke:#3FA9F5;stroke-width:2;stroke-miterlimit:10;stroke-dasharray:14,14;}
	.st16{fill:none;stroke:#3FA9F5;stroke-width:2;stroke-miterlimit:10;stroke-dasharray:13,13;}
	.st17{fill:none;stroke:#3FA9F5;stroke-width:2;stroke-miterlimit:10;stroke-dasharray:12,12;}
	.st18{fill:none;stroke:#F7931E;stroke-width:2;stroke-miterlimit:10;}
	.st19{fill:none;stroke:#F7931E;stroke-width:2;stroke-miterlimit:10;stroke-dasharray:14,14;}
	.st20{fill:none;stroke:#F7931E;stroke-width:2;stroke-miterlimit:10;stroke-dasharray:16,16;}
	.st21{fill:none;stroke:#F7931E;stroke-width:4.1332;stroke-miterlimit:10;}
	.st22{fill:none;stroke:#000000;stroke-width:2.3066;stroke-miterlimit:10;}
	.st23{fill:none;stroke:#F7931E;stroke-width:10.3798;stroke-miterlimit:10;}
	.st24{font-size:48px;}
	.st25{font-size:18px;}
</style>
<g>
	<g>
		<g>
			<path class="st0" d="M678.9,254.5c0,24,13.9,44.7,34.2,54.5l-28.9-79.1C680.8,237.4,678.9,245.7,678.9,254.5z"/>
			<path class="st0" d="M780.4,251.5c0-7.5-2.7-12.7-5-16.7c-3.1-5-6-9.2-6-14.2c0-5.6,4.2-10.8,10.2-10.8c0.3,0,0.5,0,0.8,0
				c-10.7-9.9-25.1-15.9-40.9-15.9c-21.2,0-39.8,10.9-50.6,27.3c1.4,0,2.8,0.1,3.9,0.1c6.3,0,16.2-0.8,16.2-0.8
				c3.3-0.2,3.7,4.6,0.4,5c0,0-3.3,0.4-6.9,0.6l22.1,65.7l13.3-39.8l-9.4-25.9c-3.3-0.2-6.4-0.6-6.4-0.6c-3.3-0.2-2.9-5.2,0.4-5
				c0,0,10,0.8,16,0.8c6.3,0,16.2-0.8,16.2-0.8c3.3-0.2,3.7,4.6,0.4,5c0,0-3.3,0.4-6.9,0.6l21.9,65.2l6-20.2
				C778.4,262.7,780.4,256.6,780.4,251.5z"/>
			<path class="st0" d="M740.6,259.8l-18.2,52.8c5.4,1.6,11.2,2.5,17.1,2.5c7.1,0,13.8-1.2,20.1-3.4c-0.2-0.3-0.3-0.5-0.4-0.8
				L740.6,259.8z"/>
			<path class="st0" d="M792.7,225.4c0.3,1.9,0.4,4,0.4,6.2c0,6.2-1.1,13.1-4.6,21.7L770,306.9c18-10.5,30.1-30,30.1-52.4
				C800.1,244,797.4,234.1,792.7,225.4z"/>
			<path class="st0" d="M739.5,183.9c-39,0-70.7,31.7-70.7,70.7s31.7,70.7,70.7,70.7s70.7-31.7,70.7-70.7S778.5,183.9,739.5,183.9z
				 M739.5,321.9c-37.2,0-67.4-30.2-67.4-67.4s30.2-67.4,67.4-67.4s67.4,30.2,67.4,67.4S776.7,321.9,739.5,321.9z"/>
		</g>
		<text transform="matrix(1 0 0 1 607.0355 140.4059)" class="st1 st2">WordPress Files (Inc. Theme)</text>
	</g>
	<rect x="444.9" y="218.8" class="st3" width="74.6" height="66.1"/>
	<text transform="matrix(1 0 0 1 444.9014 281.9187)" class="st4 st1 st5">+</text>
	<path class="st6" d="M561.2,592H375.9c-4.6,0-8.4,3.8-8.4,8.4v40.5c0,4.6,3.8,8.4,8.4,8.4h17.8v11c0,2,1.6,3.6,3.6,3.6h28.6
		c2,0,3.6-1.6,3.6-3.6v-11h73.8v11c0,2,1.6,3.6,3.6,3.6h28.6c2,0,3.6-1.6,3.6-3.6v-11h22.2c4.6,0,8.4-3.8,8.4-8.4v-40.5
		C569.6,595.7,565.8,592,561.2,592z M403.3,626.8c-3.4,0-6.2-2.8-6.2-6.2s2.8-6.2,6.2-6.2c3.4,0,6.2,2.8,6.2,6.2
		S406.7,626.8,403.3,626.8z M429.2,626.8c-3.4,0-6.2-2.8-6.2-6.2s2.8-6.2,6.2-6.2c3.4,0,6.2,2.8,6.2,6.2S432.6,626.8,429.2,626.8z
		 M455.1,626.8c-3.4,0-6.2-2.8-6.2-6.2s2.8-6.2,6.2-6.2s6.2,2.8,6.2,6.2S458.5,626.8,455.1,626.8z M546.9,624.2H500
		c-2,0-3.6-1.6-3.6-3.6s1.6-3.6,3.6-3.6h46.9c2,0,3.6,1.6,3.6,3.6S548.8,624.2,546.9,624.2z M561.2,527.6H375.9
		c-4.6,0-8.4,3.8-8.4,8.4v40.5c0,4.6,3.8,8.4,8.4,8.4h185.3c4.6,0,8.4-3.8,8.4-8.4V536C569.6,531.3,565.8,527.6,561.2,527.6z
		 M403.3,562.4c-3.4,0-6.2-2.8-6.2-6.2s2.8-6.2,6.2-6.2c3.4,0,6.2,2.8,6.2,6.2S406.7,562.4,403.3,562.4z M429.2,562.4
		c-3.4,0-6.2-2.8-6.2-6.2s2.8-6.2,6.2-6.2c3.4,0,6.2,2.8,6.2,6.2S432.6,562.4,429.2,562.4z M455.1,562.4c-3.4,0-6.2-2.8-6.2-6.2
		s2.8-6.2,6.2-6.2s6.2,2.8,6.2,6.2S458.5,562.4,455.1,562.4z M546.9,559.8H500c-2,0-3.6-1.6-3.6-3.6s1.6-3.6,3.6-3.6h46.9
		c2,0,3.6,1.6,3.6,3.6S548.8,559.8,546.9,559.8z M561.2,463.2H375.9c-4.6,0-8.4,3.8-8.4,8.4v40.5c0,4.6,3.8,8.4,8.4,8.4h185.3
		c4.6,0,8.4-3.8,8.4-8.4v-40.5C569.6,467,565.8,463.2,561.2,463.2z M403.3,498c-3.4,0-6.2-2.8-6.2-6.2s2.8-6.2,6.2-6.2
		c3.4,0,6.2,2.8,6.2,6.2S406.7,498,403.3,498z M429.2,498c-3.4,0-6.2-2.8-6.2-6.2s2.8-6.2,6.2-6.2c3.4,0,6.2,2.8,6.2,6.2
		S432.6,498,429.2,498z M455.1,498c-3.4,0-6.2-2.8-6.2-6.2s2.8-6.2,6.2-6.2s6.2,2.8,6.2,6.2S458.5,498,455.1,498z M546.9,495.4H500
		c-2,0-3.6-1.6-3.6-3.6s1.6-3.6,3.6-3.6h46.9c2,0,3.6,1.6,3.6,3.6C550.4,493.8,548.8,495.4,546.9,495.4z M561.2,398.8H375.9
		c-4.6,0-8.4,3.8-8.4,8.4v40.5c0,4.6,3.8,8.4,8.4,8.4h185.3c4.6,0,8.4-3.8,8.4-8.4v-40.5C569.6,402.6,565.8,398.8,561.2,398.8z
		 M403.3,433.6c-3.4,0-6.2-2.8-6.2-6.2c0-3.4,2.8-6.2,6.2-6.2c3.4,0,6.2,2.8,6.2,6.2C409.5,430.9,406.7,433.6,403.3,433.6z
		 M429.2,433.6c-3.4,0-6.2-2.8-6.2-6.2c0-3.4,2.8-6.2,6.2-6.2c3.4,0,6.2,2.8,6.2,6.2C435.4,430.9,432.6,433.6,429.2,433.6z
		 M455.1,433.6c-3.4,0-6.2-2.8-6.2-6.2c0-3.4,2.8-6.2,6.2-6.2s6.2,2.8,6.2,6.2C461.3,430.9,458.5,433.6,455.1,433.6z M546.9,431H500
		c-2,0-3.6-1.6-3.6-3.6s1.6-3.6,3.6-3.6h46.9c2,0,3.6,1.6,3.6,3.6S548.8,431,546.9,431z"/>
	<g>
		<g>
			<path d="M291.2,189.3c0-0.5-0.1-0.9-0.3-1.4c-0.1-0.5-0.3-1-0.6-1.4l-15.2-17.8H158.9l-15.2,17.8c-0.4,0.4-0.6,0.9-0.6,1.4
				c-0.2,0.4-0.3,0.9-0.3,1.4v26.4h7.4v101.5h133.6V215.7h7.4V189.3z M161.2,173.6h111.6l10.6,12.4H150.6L161.2,173.6z M278.9,312.2
				H155.1v-96.5h123.7L278.9,312.2L278.9,312.2z M286.3,210.8h-2.5H150.2h-2.5V191h138.6V210.8L286.3,210.8z"/>
			<g transform="translate(0.738281, 121.593)">
				<path class="st7" d="M165.2,179.1h3.4v-13.6l5.3,11.8c0.6,1.4,1.5,1.9,3.2,1.9s2.5-0.5,3.1-1.9l5.4-11.8v13.6h3.4v-13.6
					c0-1.3-0.5-2-1.6-2.3c-2.6-0.8-4.4-0.1-5.2,1.7l-5.2,11.7l-5.1-11.7c-0.8-1.8-2.5-2.5-5.2-1.7c-1.1,0.3-1.6,1-1.6,2.3v13.6
					H165.2z"/>
			</g>
			<g transform="translate(100.444, 142.416)">
				<path class="st7" d="M92.2,147.2h3.4v7.5c0,0.4,0.1,1.4,2,1.4c1,0,7.4,0,7.5,0v-8.9h3.4v12.2c0,3-3.7,3.6-5.4,3.7H92.2v-2.3
					h10.9c2.2-0.2,2-1.3,2-1.7v-0.9h-7.3c-3.4,0-5.6-1.5-5.6-3.2C92.2,154.8,92.2,147.3,92.2,147.2z"/>
			</g>
			<g transform="translate(171.496, 124.557)">
				<path class="st8" d="M40.1,176.1H50c1.2,0,2.3-0.2,3.2-0.7c1.5-0.7,2.2-1.6,2.2-2.8v-2.5c0-1-0.8-1.9-2.4-2.5
					c-0.9-0.3-1.9-0.5-2.9-0.5h-4.2c-1.4,0-2.1-0.4-2.2-1.3c0-0.1,0-0.2,0-0.3v-1.6c0-0.1,0-0.2,0-0.3c0.2-0.7,0.5-0.9,1.8-1
					c0.1,0,0.2,0,0.3,0h9.8v-2.3h-9.7c-1.4,0-2.1,0.1-2.8,0.3c-2.1,0.6-2.9,1.7-2.9,3.4v2c0,1.5,1.8,2.9,4.7,3.2c0.3,0,0.7,0,1,0
					h3.6c0.1,0,0.3,0,0.4,0c1.1,0.1,1.6,0.3,1.9,0.7c0.2,0.2,0.3,0.4,0.3,0.6v2c0,0.2-0.2,0.6-0.5,0.8c-0.3,0.3-0.8,0.4-1.5,0.5
					c-0.1,0-0.2,0-0.4,0h-9.5L40.1,176.1L40.1,176.1z"/>
			</g>
			<g transform="translate(308.656, 124.557)">
				<path class="st8" d="M-60.3,172.1c0,2.4,1.8,3.7,5.3,3.9c0.3,0,0.7,0,1,0h9v-2.2h-9c-2,0-2.8-0.5-2.8-1.7v-11.9h-3.4
					L-60.3,172.1L-60.3,172.1z"/>
			</g>
			<g transform="translate(236.74, 124.666)">
				<path class="st8" d="M-7.6,172.1v-8.2c0-2.1,1.5-3.3,4.3-3.7c0.3,0,0.6-0.1,0.9-0.1h6.5c0.3,0,0.6,0,1,0.1
					c2.9,0.4,4.3,1.7,4.3,3.7v8.2c0,1.7-0.6,2.6-2,3.2l3.4,3.1h-4l-2.7-2.5l-2.8,0.2h-3.7c-0.6,0-1.3-0.1-2-0.3
					C-6.6,175.2-7.6,174-7.6,172.1z M-3.9,171.9c0,0.1,0,0.2,0.1,0.4c0.2,1,1.1,1.5,2.5,1.5h3.1l-2.9-2.6h4l2.5,2.3
					c0.5-0.2,0.8-0.6,0.9-1.1c0-0.1,0-0.2,0-0.3v-7.8c0-0.1,0-0.2,0-0.3c-0.3-1-1.1-1.5-2.5-1.5h-5.2c-1.5,0-2.5,0.7-2.5,1.7V171.9z
					"/>
			</g>
			<g transform="translate(241.59, -4.64258)">
				<path class="st7" d="M25.1,285.6c-2.1-0.1-3.7,0.1-5.1,0.7c-0.4,0.2-1,0.2-1.1,0.7c0.2,0.2,0.2,0.6,0.4,0.8
					c0.3,0.5,0.9,1.2,1.4,1.6s1.1,0.8,1.7,1.2c1,0.6,2.2,1,3.2,1.6c0.6,0.4,1.2,0.8,1.7,1.3c0.3,0.2,0.5,0.5,0.8,0.7c0,0,0,0,0-0.1
					c-0.2-0.2-0.2-0.6-0.4-0.8c-0.3-0.3-0.5-0.5-0.8-0.8c-0.8-1-1.7-1.9-2.8-2.6c-0.8-0.6-2.7-1.4-3-2.3c0,0,0,0-0.1-0.1
					c0.6-0.1,1.3-0.3,1.8-0.4c0.9-0.2,1.7-0.2,2.6-0.4c0.4-0.1,0.8-0.2,1.3-0.4c0-0.1,0-0.2,0-0.2c-0.5-0.5-0.8-1.1-1.3-1.6
					c-1.3-1.1-2.8-2.3-4.3-3.2c-0.8-0.5-1.9-0.9-2.8-1.3c-0.3-0.2-0.8-0.2-1-0.5c-0.5-0.6-0.7-1.4-1.1-2c-0.8-1.5-1.5-3-2.2-4.6
					c-0.5-1-0.8-2.1-1.3-3c-2.6-4.6-5.6-7.3-10.1-9.9c-1-0.6-2.1-0.8-3.4-1.1c-0.7,0-1.3-0.1-2-0.1c-0.4-0.2-0.8-0.7-1.2-0.9
					c-1.5-1-5.4-3-6.5-0.3c-0.7,1.7,1.1,3.4,1.7,4.3c0.4,0.6,1,1.3,1.3,2c0.2,0.5,0.2,0.9,0.4,1.4c0.4,1.2,0.8,2.5,1.4,3.5
					c0.3,0.6,0.6,1.1,1,1.6c0.2,0.3,0.6,0.4,0.7,0.9c-0.4,0.5-0.4,1.3-0.6,2c-0.9,3-0.6,6.6,0.8,8.8c0.4,0.7,1.4,2.1,2.8,1.6
					c1.2-0.5,0.9-2,1.3-3.3c0.1-0.3,0-0.5,0.2-0.7c0,0,0,0,0,0.1c0.4,0.7,0.7,1.4,1.1,2.2c0.8,1.3,2.2,2.6,3.4,3.5
					c0.6,0.5,1.1,1.3,1.9,1.6c0,0,0,0,0-0.1c0,0,0,0-0.1,0c-0.2-0.2-0.4-0.3-0.6-0.5c-0.5-0.5-1-1-1.4-1.6c-1.1-1.5-2.1-3.1-2.9-4.8
					c-0.4-0.8-0.8-1.7-1.1-2.5c-0.1-0.3-0.1-0.8-0.4-1c-0.4,0.6-1,1.1-1.3,1.8c-0.5,1.1-0.5,2.5-0.7,4c-0.1,0-0.1,0-0.1,0.1
					c-0.8-0.2-1.1-1.1-1.4-1.8c-0.8-1.9-0.9-4.9-0.2-7c0.2-0.6,1-2.3,0.7-2.8c-0.2-0.5-0.7-0.8-1-1.2c-0.4-0.5-0.7-1.1-1-1.7
					c-0.6-1.5-0.9-3.1-1.6-4.6c-0.3-0.7-0.9-1.4-1.3-2c-0.5-0.7-1.1-1.2-1.4-2c-0.1-0.3-0.3-0.8-0.1-1.1c0.1-0.2,0.2-0.3,0.4-0.4
					c0.3-0.3,1.3,0.1,1.7,0.2c1,0.4,1.8,0.8,2.6,1.3c0.4,0.3,0.8,0.8,1.3,0.9c0.2,0,0.4,0,0.5,0c0.8,0.2,1.8,0.1,2.6,0.3
					c1.4,0.4,2.7,1.1,3.8,1.8c3.5,2.2,6.3,5.3,8.2,9c0.3,0.6,0.4,1.2,0.7,1.8c0.6,1.3,1.3,2.6,1.8,3.8c0.6,1.2,1.1,2.5,1.9,3.5
					c0.4,0.5,2,0.8,2.7,1.1c0.5,0.2,1.3,0.4,1.8,0.7c0.9,0.5,1.8,1.2,2.6,1.8C23.7,284.4,25,285.1,25.1,285.6z"/>
			</g>
			<g transform="translate(272.504, 24.8027)">
				<path class="st7" d="M-27.6,197.7c-0.4,0-0.8,0-1.1,0.1c0,0,0,0,0,0.1c0,0,0,0,0.1,0c0.2,0.4,0.6,0.7,0.8,1.1
					c0.2,0.4,0.4,0.8,0.6,1.3c0,0,0,0,0.1-0.1c0.4-0.3,0.5-0.7,0.5-1.3c-0.1-0.2-0.2-0.4-0.3-0.5C-27.1,198.1-27.4,197.9-27.6,197.7
					z"/>
			</g>
			<g transform="translate(371.609, 165.56)">
				<path class="st8" d="M-101.3,97.2c0,1.5,1.2,2.5,2.5,2.5s2.5-1,2.5-2.5s-1.2-2.5-2.5-2.5S-101.3,95.7-101.3,97.2z M-96.8,97.2
					c0,1.1-0.9,2-2,2s-2-0.9-2-2s0.9-2,2-2C-97.6,95.2-96.8,96-96.8,97.2z M-98.1,98.6h0.6l-0.8-1.3c0.4,0,0.8-0.3,0.8-0.8
					c0-0.6-0.4-0.8-1.1-0.8h-1.1v2.9h0.5v-1.3h0.5L-98.1,98.6z M-99.3,97v-0.8h0.6c0.3,0,0.6,0.1,0.6,0.4c0,0.4-0.3,0.4-0.7,0.4
					H-99.3z"/>
			</g>
		</g>
		<text transform="matrix(1 0 0 1 138 140.4057)" class="st1 st2">MySQL Database</text>
	</g>
	<rect x="420.5" y="695.2" class="st3" width="96.1" height="52.3"/>
	<text transform="matrix(1 0 0 1 420.4854 716.1906)" class="st1 st9">Server</text>
	<g>
		<rect x="166.8" y="754.5" class="st10" width="84" height="14.2"/>
		<rect x="261.9" y="818.5" class="st10" width="33.8" height="23.1"/>
		<rect x="261.9" y="778.3" class="st10" width="33.8" height="24.8"/>
		<rect x="261.9" y="807.4" class="st11" width="33.8" height="5.8"/>
		<rect x="128.5" y="747.6" class="st12" width="34" height="111"/>
		<rect x="166.8" y="778.3" class="st10" width="84" height="63.3"/>
		<path d="M300.8,736.9h-171c-6.1,0-11,5-11,11.2v132c0,6.2,4.9,11.2,11,11.2H195l-7.6,22h-11v5.5h9.1h59.6h9.1v-5.5h-11l-7.6-22
			h65.1c6.1,0,11-5,11-11.2v-132C311.8,741.9,306.8,736.9,300.8,736.9z M302.1,858.6H128.5v-111h173.6V858.6L302.1,858.6z"/>
		<g>
			<path class="st0" d="M270.4,761.6c0,3.3,1.9,6.2,4.7,7.6l-4-11C270.7,759.2,270.4,760.4,270.4,761.6z"/>
			<path class="st0" d="M284.5,761.1c0-1-0.4-1.8-0.7-2.3c-0.4-0.7-0.8-1.3-0.8-2c0-0.8,0.6-1.5,1.4-1.5h0.1
				c-1.5-1.4-3.5-2.2-5.7-2.2c-2.9,0-5.5,1.5-7,3.8c0.2,0,0.4,0,0.5,0c0.9,0,2.2-0.1,2.2-0.1c0.5,0,0.5,0.6,0.1,0.7
				c0,0-0.5,0.1-1,0.1l3.1,9.1l1.8-5.5l-1.3-3.6c-0.5,0-0.9-0.1-0.9-0.1c-0.5,0-0.4-0.7,0.1-0.7c0,0,1.4,0.1,2.2,0.1
				c0.9,0,2.2-0.1,2.2-0.1c0.5,0,0.5,0.6,0.1,0.7c0,0-0.5,0.1-1,0.1l3,9l0.8-2.8C284.2,762.7,284.5,761.9,284.5,761.1z"/>
			<path class="st0" d="M279,762.3l-2.5,7.3c0.8,0.2,1.6,0.3,2.4,0.3c1,0,1.9-0.2,2.8-0.5c0,0,0-0.1-0.1-0.1L279,762.3z"/>
			<path class="st0" d="M286.2,757.5c0,0.3,0.1,0.6,0.1,0.9c0,0.9-0.2,1.8-0.6,3l-2.6,7.4c2.5-1.5,4.2-4.2,4.2-7.3
				C287.2,760.1,286.9,758.7,286.2,757.5z"/>
			<path class="st0" d="M278.8,751.8c-5.4,0-9.8,4.4-9.8,9.8c0,5.4,4.4,9.8,9.8,9.8s9.8-4.4,9.8-9.8
				C288.6,756.2,284.2,751.8,278.8,751.8z M278.8,770.9c-5.2,0-9.4-4.2-9.4-9.4s4.2-9.4,9.4-9.4c5.2,0,9.4,4.2,9.4,9.4
				C288.2,766.7,284,770.9,278.8,770.9z"/>
		</g>
	</g>
	<rect x="102.1" y="962.2" class="st3" width="233.1" height="56.3"/>
	<text transform="matrix(1 0 0 1 102.1465 977.9797)" class="st1 st2">Content Entry on</text>
	<text transform="matrix(1 0 0 1 102.1465 1002.8797)" class="st1 st2">Wordpress Dashboard</text>
	<rect x="679.7" y="955" class="st3" width="208" height="56.3"/>
	<text transform="matrix(1 0 0 1 679.7402 970.8068)" class="st1 st2">Content Displays on </text>
	<text transform="matrix(1 0 0 1 679.7402 995.7068)" class="st1 st2">Website </text>
	<g>
		<g>
			<g>
				<path class="st11" d="M217.4,733.4c0-19.6,0-39.2,0-58.8c0-31.1,0-62.1,0-93.2c0-7.2,0-14.4,0-21.6c0-2.4-3.7-2.4-3.7,0
					c0,19.6,0,39.2,0,58.8c0,31.1,0,62.1,0,93.2c0,7.2,0,14.4,0,21.6C213.7,735.8,217.4,735.8,217.4,733.4L217.4,733.4z"/>
			</g>
		</g>
		<g>
			<g>
				<path class="st11" d="M215.6,561.7c43.8,0,87.5,0,131.3,0c6.2,0,12.4,0,18.6,0c2.4,0,2.4-3.7,0-3.7c-43.8,0-87.5,0-131.3,0
					c-6.2,0-12.4,0-18.6,0C213.2,558,213.2,561.7,215.6,561.7L215.6,561.7z"/>
			</g>
		</g>
	</g>
	<g>
		<g>
			<g>
				<g>
					<path class="st13" d="M775.2,721.5c0-47.4,0-94.7,0-142.1c0-6.6,0-13.2,0-19.7c0-2.6-4.1-2.6-4.1,0c0,47.4,0,94.7,0,142.1
						c0,6.6,0,13.2,0,19.7C771.1,724.2,775.2,724.2,775.2,721.5L775.2,721.5z"/>
				</g>
			</g>
			<g>
				<g>
					<path class="st13" d="M773.2,557.7c-22.2,0-44.4,0-66.6,0c-35.4,0-70.7,0-106.1,0c-8.1,0-16.2,0-24.3,0c-2.6,0-2.6,4.1,0,4.1
						c22.2,0,44.4,0,66.6,0c35.4,0,70.7,0,106.1,0c8.1,0,16.2,0,24.3,0C775.8,561.8,775.8,557.7,773.2,557.7L773.2,557.7z"/>
				</g>
			</g>
		</g>
		<polygon class="st13" points="773.2,736.8 758.1,710.6 788.3,710.6 		"/>
	</g>
	<polygon class="st11" points="369.8,560.1 340.2,574.1 340.2,546.1 	"/>
	<g>
		<g>
			<line class="st14" x1="158" y1="235.5" x2="152" y2="235.5"/>
			<line class="st15" x1="138" y1="235.5" x2="33" y2="235.5"/>
			<polyline class="st14" points="26,235.5 19,235.5 19,242.5 			"/>
			<line class="st16" x1="19" y1="255.5" x2="19" y2="790.5"/>
			<polyline class="st14" points="19,797.5 19,803.5 26,803.5 			"/>
			<line class="st17" x1="38" y1="803.5" x2="106" y2="803.5"/>
			<line class="st14" x1="113" y1="803.5" x2="119" y2="803.5"/>
		</g>
	</g>
	<g>
		<g>
			<line class="st18" x1="810" y1="243.5" x2="817" y2="243.5"/>
			<line class="st19" x1="831" y1="243.5" x2="967" y2="243.5"/>
			<polyline class="st18" points="974,243.5 981,243.5 981,250.5 			"/>
			<line class="st19" x1="981" y1="264.5" x2="981" y2="782.5"/>
			<polyline class="st18" points="981,789.5 981,796.5 974,796.5 			"/>
			<line class="st20" x1="959" y1="796.5" x2="873" y2="796.5"/>
			<line class="st18" x1="865" y1="796.5" x2="858" y2="796.5"/>
		</g>
	</g>
	<g>
		<rect x="697" y="747.4" class="st10" width="173.6" height="5.8"/>
		<rect x="697" y="753.6" class="st13" width="173.6" height="39.2"/>
		<path d="M869.2,736.8h-171c-6.1,0-11,5-11,11.2v132c0,6.2,4.9,11.2,11,11.2h65.1l-7.6,22h-11v5.5h9.1h59.6h9.1v-5.5h-11l-7.6-22
			H869c6.1,0,11-5,11-11.2V748C880.3,741.8,875.3,736.8,869.2,736.8z M870.5,858.5H697v-111h173.6L870.5,858.5L870.5,858.5z"/>
		<rect x="820.8" y="799.9" class="st21" width="41.6" height="52.8"/>
		<line class="st22" x1="726.7" y1="825.1" x2="796.4" y2="825.1"/>
		<line class="st23" x1="726.7" y1="808.9" x2="796.4" y2="808.9"/>
		<line class="st22" x1="726.7" y1="832.6" x2="796.4" y2="832.6"/>
		<line class="st22" x1="726.7" y1="839.3" x2="796.4" y2="839.3"/>
		<line class="st22" x1="726.7" y1="846" x2="796.4" y2="846"/>
		<line class="st22" x1="726.7" y1="852.7" x2="796.4" y2="852.7"/>
	</g>
	<g>
		<g>
			<g>
				<path class="st11" d="M215.5,326.1c0,18.1,0,36.2,0,54.3c0,28.7,0,57.3,0,86c0,6.6,0,13.3,0,19.9c0,2.2-3.7,2.2-3.7,0
					c0-18.1,0-36.2,0-54.3c0-28.7,0-57.3,0-86c0-6.6,0-13.3,0-19.9C211.8,323.8,215.5,323.8,215.5,326.1L215.5,326.1z"/>
			</g>
		</g>
		<g>
			<g>
				<path class="st11" d="M213.7,484.6c43.8,0,87.5,0,131.3,0c6.2,0,12.4,0,18.6,0c2.4,0,2.4,3.4,0,3.4c-43.8,0-87.5,0-131.3,0
					c-6.2,0-12.4,0-18.6,0C211.3,488,211.3,484.6,213.7,484.6L213.7,484.6z"/>
			</g>
		</g>
	</g>
	<polygon class="st11" points="213.8,317.2 229.2,346 201.3,347.4 	"/>
	<g>
		<g>
			<g>
				<g>
					<path class="st13" d="M582.5,495.8c55.3,0.5,110.5,1,165.8,1.5c7.7,0.1,15.4,0.1,23,0.2c3,0,3.1-3.5,0-3.5
						c-55.3-0.5-110.5-1-165.8-1.5c-7.7-0.1-15.4-0.1-23-0.2C579.4,492.3,579.4,495.8,582.5,495.8L582.5,495.8z"/>
				</g>
			</g>
			<g>
				<g>
					<path class="st13" d="M773.7,495.8c0.2-19.1,0.3-38.1,0.5-57.2c0.3-30.4,0.5-60.7,0.8-91.1c0.1-7,0.1-13.9,0.2-20.9
						c0-2.2-4.8-2.3-4.8,0c-0.2,19.1-0.3,38.1-0.5,57.2c-0.3,30.4-0.5,60.7-0.8,91.1c-0.1,7-0.1,13.9-0.2,20.9
						C768.9,498,773.7,498.1,773.7,495.8L773.7,495.8z"/>
				</g>
			</g>
		</g>
		<polygon class="st13" points="564.7,494 595.4,481.3 595.1,507.2 		"/>
	</g>
</g>
<text transform="matrix(1 0 0 1 102.5117 59)" class="st4 st1 st24">Anatomy of a WordPress Website</text>
<rect x="51" y="486" class="st3" width="141" height="69"/>
<text transform="matrix(1 0 0 1 51 499.6797)"><tspan x="0" y="0" class="st11 st1 st25">Tip: This side </tspan><tspan x="0" y="21.6" class="st11 st1 st25">controls what’s </tspan><tspan x="0" y="43.2" class="st11 st1 st25">on the page.</tspan></text>
<rect x="825" y="488.5" class="st3" width="141" height="69"/>
<text transform="matrix(1 0 0 1 825 502.1797)"><tspan x="0" y="0" class="st13 st1 st25">Tip: This side </tspan><tspan x="0" y="21.6" class="st13 st1 st25">controls how </tspan><tspan x="0" y="43.2" class="st13 st1 st25">the page looks.</tspan></text>
</svg>
