<svg xmlns="http://www.w3.org/2000/svg" width="460.466" height="49" viewBox="0 0 460.466 49"><path d="M178.803 11.465c0-3.59-.657-3.678-1.27-3.678-.745 0-1.4.262-2.41.262-.875 0-1.487-.62-1.487-1.45 0-1.01.963-1.62 2.014-1.62 1.357 0 2.06.48 2.934.48 1.14 0 1.533-.48 2.365-.48 1.09 0 1.22.7 1.22 2.28v22.07c0 3.19.52 3.67 1.27 3.67s1.4-.26 2.01-.26c.87 0 1.49.61 1.49 1.44 0 1.01-.97 1.62-1.89 1.62-1.49 0-2.37-.48-4.51-.48-2.02 0-3.11.48-4.64.48-.92 0-1.89-.61-1.89-1.62 0-.83.61-1.45 1.49-1.45.61 0 1.27.26 2.01.26 1.05 0 1.27-1.18 1.27-3.68V11.46zM190.51 24.91c-.177 4.467 2.232 8.54 7.05 8.54 2.978 0 5.21-1.49 6.043-4.335.264-.92.482-1.928 1.664-1.928.964 0 1.752.656 1.752 1.664 0 1.8-1.32 3.86-2.59 5.04-1.84 1.75-4.64 2.54-7.14 2.54-6.88 0-10.43-5.12-10.43-11.6 0-2.97.74-6.17 2.58-8.54 1.97-2.49 4.9-3.85 8.06-3.85 5.91 0 9.94 4.25 9.94 10.12 0 2.19 0 2.37-2.11 2.37H190.5zm13.31-3.152c-.218-3.592-2.276-6.352-6.173-6.352-3.767 0-6.438 2.672-6.744 6.352h12.918zm23.65 7.006c-.043 1.357-.437 4.773 1.665 4.773 1.884 0 1.577-2.803 1.577-4.072 0-1.227-.176-2.627 1.4-2.627 1.226 0 1.532.787 1.532 1.795 0 3.328 0 4.816-.92 6.043-.874 1.227-2.407 1.576-3.853 1.576-2.14 0-4.02-.963-4.46-3.152-1.53 2.453-4.29 3.328-7.09 3.328-1.79 0-3.68-.307-5.21-1.27-1.79-1.14-2.93-3.02-2.93-5.21 0-2.454.97-4.382 2.98-5.563 1.93-1.14 3.72-1.314 5.87-1.576 2.63-.27 6.09-.22 6.09-3.47 0-2.94-2.36-3.94-4.95-3.94-1.14 0-2.41.39-3.37.96-.35.22-1.01.65-1.01 1.14 0 .22 1.05.26 1.05 1.79 0 1.31-1.14 2.06-2.36 2.06-1.53 0-2.71-1.23-2.71-2.81 0-1.88 1.23-3.46 2.72-4.51 1.58-1.1 3.86-1.62 5.78-1.62 2.06 0 4.34.48 6 1.75 2.15 1.66 2.46 4.03 2.41 6.66l-.17 7.92zm-10.116 4.685c2.06 0 4.204-.62 5.518-2.32.964-1.36 1.096-2.72 1.096-4.25 0-.92.043-1.89.088-2.81-1.62 1.57-4.03 1.66-6.132 1.88-2.32.22-5.124.79-5.124 3.81 0 2.62 2.234 3.68 4.554 3.68zm22.116-13.93c0-2.98-.35-3.68-1.313-3.68-.744 0-1.402.26-2.54.26-.876 0-1.49-.62-1.49-1.45 0-1.01.964-1.62 1.972-1.62.83 0 1.48.48 2.54.48 1.09 0 1.66-.48 2.49-.48 1.14 0 1.27.92 1.22 2.67h.08c1.35-2.23 3.55-3.28 6.17-3.28 3.68 0 7.05 2.19 7.05 6.17 0 2.23-1.01 4.51-3.68 4.51-1.18 0-2.36-.83-2.36-2.11 0-.96.78-1.88 1.79-1.88.17 0 .39.08.57.13.17-.35.26-.62.26-1.01 0-1.97-2.15-3.07-3.9-3.07-3.33 0-5.52 1.93-5.52 8.27v5.87c0 3.19.61 3.68 1.4 3.68.74 0 1.4-.26 2.01-.26.87 0 1.49.61 1.49 1.44 0 1.01-.97 1.62-1.89 1.62-1.49 0-2.72-.48-4.51-.48-1.84 0-2.85.48-4.65.48-1.01 0-1.97-.61-1.97-1.62 0-.83.61-1.44 1.48-1.44.61 0 1.27.26 2.01.26.96 0 1.22-.61 1.22-3.68v-9.8zm21.84.04c0-3.02-.263-3.73-1.27-3.73-.745 0-1.4.26-2.015.26-.875 0-1.488-.62-1.488-1.45 0-.79.875-1.62 1.62-1.62.92 0 1.226.48 2.364.48 1.27 0 1.67-.48 2.76-.48.92 0 .97.96.97 2.63h.09c1.67-2.28 4.6-3.24 7.31-3.24 2.32 0 4.6.78 6.35 2.36 1.93 1.75 2.02 3.98 2.02 6.39v8.14c0 2.67.27 3.72 1.27 3.72.75 0 1.41-.27 2.02-.27.88 0 1.49.61 1.49 1.44 0 1-.7 1.57-1.88 1.57-1.44 0-2.49-.48-4.46-.48-2.1 0-3.11.48-4.68.48-1.18 0-1.88-.57-1.88-1.58 0-.84.62-1.45 1.49-1.45.62 0 1.27.26 2.02.26 1.1 0 1.27-.97 1.27-3.73V22.8c0-2.8 0-3.676-.7-5.033-.87-1.71-2.93-2.41-4.77-2.41-1.97 0-4.25.832-5.34 2.54-.52.833-1.13 1.796-1.13 6.175v5.17c0 2.67.27 3.723 1.27 3.723.75 0 1.4-.26 2.02-.26.88 0 1.49.614 1.49 1.444 0 1.01-.7 1.62-1.88 1.62-1.44 0-2.49-.48-4.47-.48-2.1 0-3.11.48-4.68.48-1.18 0-1.88-.61-1.88-1.62 0-.83.61-1.44 1.49-1.44.61 0 1.27.26 2.02.26 1.096 0 1.27-.97 1.27-3.73v-9.72zm29.43-.05c0-3.07-.307-3.68-1.27-3.68-.745 0-1.4.26-2.015.26-.875 0-1.488-.62-1.488-1.45 0-1.01.7-1.62 1.533-1.62 1.182 0 1.838.48 2.89.48 1.095 0 1.663-.48 2.495-.48 1.008 0 1.227 1 1.227 1.88v16.3c0 1.05.352 1.79 1.14 1.79.48 0 1.095-.31 1.75-.26.876 0 1.49.61 1.49 1.44 0 1-.964 1.62-1.884 1.62-1.488 0-2.627-.48-4.51-.48-1.84 0-3.11.48-4.643.48-.744 0-1.488-.79-1.488-1.62 0-.83.613-1.45 1.488-1.45.613 0 1.27.26 2.014.26 1 0 1.27-.97 1.27-3.68v-9.8zm3.46-11.25c0 1.4-1.14 2.54-2.54 2.54-1.357 0-2.498-1.14-2.498-2.54 0-1.41 1.14-2.5 2.498-2.5 1.4 0 2.54 1.09 2.54 2.5zm10.466 11.29c0-3.02-.264-3.73-1.27-3.73-.746 0-1.402.26-2.016.26-.875 0-1.488-.61-1.488-1.45 0-.79.875-1.62 1.62-1.62.92 0 1.226.48 2.364.48 1.27 0 1.664-.48 2.76-.48.92 0 .963.96.963 2.63h.08c1.66-2.28 4.6-3.24 7.31-3.24 2.32 0 4.6.78 6.35 2.36 1.92 1.75 2.01 3.99 2.01 6.4v8.14c0 2.67.26 3.72 1.27 3.72.74 0 1.4-.26 2.01-.26.87 0 1.49.61 1.49 1.44 0 1-.71 1.57-1.89 1.57-1.45 0-2.5-.48-4.47-.48-2.11 0-3.11.48-4.69.48-1.19 0-1.89-.57-1.89-1.58 0-.83.61-1.45 1.49-1.45.61 0 1.27.26 2.01.26 1.09 0 1.27-.96 1.27-3.72V22.8c0-2.8 0-3.675-.7-5.032-.88-1.71-2.94-2.41-4.78-2.41-1.97 0-4.25.83-5.34 2.54-.53.832-1.14 1.795-1.14 6.174v5.17c0 2.67.26 3.722 1.27 3.722.74 0 1.4-.266 2.01-.266.87 0 1.49.62 1.49 1.45 0 1.01-.7 1.62-1.88 1.62-1.45 0-2.5-.48-4.47-.48-2.11 0-3.11.48-4.69.48-1.18 0-1.88-.61-1.88-1.62 0-.83.61-1.442 1.49-1.442.61 0 1.27.26 2.01.26 1.09 0 1.27-.96 1.27-3.72v-9.73zM338.56 29.9c2.5 0 4.95.09 7.315.878 2.76.914 5.125 2.973 5.125 6.13 0 5.602-6.92 7.003-11.3 7.003-4.335 0-11.08-1.18-11.08-6.78 0-2.58 1.753-4.42 4.116-5.17v-.08c-2.057-.7-3.678-1.84-3.678-4.16 0-2.27 1.576-3.81 3.678-4.42-.875-1-1.225-2.41-1.225-3.81 0-4.55 4.21-7.05 8.37-7.05.88 0 1.75.04 2.63.31-.13-2.85 2.41-4.51 5.04-4.51 2.37 0 4.95 1.32 4.95 3.99 0 1.27-1.01 2.54-2.36 2.54-.92 0-1.75-.74-1.75-1.71 0-.65.49-1.09.97-1.44-.44-.61-1.09-.87-1.84-.87-1.75 0-2.49 1.4-2.41 2.98 2.15 1.27 3.42 3.68 3.42 6.18 0 4.73-4.07 7.4-8.32 7.4-1.75 0-3.41-.48-5.03-1.18-.3-.13-.83-.31-1.18-.31-.96 0-1.62 1.01-1.62 1.89 0 2.15 3.02 2.23 4.6 2.23h1.62zm-3.984 3.986c-1.27.613-2.32 1.71-2.32 3.197 0 1.664 1.445 2.803 2.846 3.328 1.357.49 3.242.66 4.643.66 2.496 0 7.62-.61 7.62-4.07 0-3.5-4.817-3.98-7.444-3.98-1.57 0-3.9.18-5.34.88zm10.555-14.1c-.08-2.76-2.49-4.512-5.12-4.512-2.67 0-4.94 1.795-4.94 4.555 0 2.89 2.23 4.51 4.91 4.51s5.08-1.58 5.17-4.56zm30.99 9.653c.31-1.19.48-2.72 2.02-2.72.92 0 1.71.78 1.71 1.7 0 1.71-1.27 4.16-2.41 5.39-1.79 1.97-4.38 2.84-7.01 2.84-6.65 0-10.16-5.43-10.16-11.56 0-6.79 3.46-12.44 10.78-12.44 1.8 0 3.81.52 5.3 1.57 1.67 1.14 2.94 3.2 2.94 5.25s-1.01 3.98-3.28 3.98c-1.36 0-2.59-.97-2.59-2.41 0-1.27 1.1-1.97 2.28-2.02-.09-2.28-2.85-3.42-4.82-3.42-4.94 0-6.96 4.73-6.96 9.02 0 4.25 1.62 9.02 6.75 9.02 2.72 0 4.78-1.67 5.48-4.25zm16.38-16.78c3.16 0 6 .83 8.02 3.32 1.93 2.36 2.76 5.6 2.76 8.58 0 6.65-3.72 12.08-10.81 12.08-6.96 0-10.38-5.56-10.38-11.96 0-6.44 3.37-12.05 10.42-12.05zm0 21.02c5.39 0 7.14-4.65 7.14-9.29 0-2.02-.44-4.47-1.57-6.22-1.18-1.84-3.19-2.54-5.29-2.54-2.45 0-4.29.83-5.56 2.97-1 1.71-1.48 4.03-1.48 5.95 0 4.33 1.67 9.1 6.79 9.1zm33.11-4.12c0 3.02.35 3.67 1.27 3.67.75 0 1.4-.26 2.02-.26.88 0 1.49.61 1.49 1.44 0 1.01-.7 1.62-1.44 1.62-.79 0-1.57-.48-2.58-.48-.96 0-1.31.48-2.36.48-1.14 0-1.53-.44-1.53-2.11v-.44h-.09c-1.35 2.23-4.16 3.15-6.74 3.15-6.96 0-10.2-5.78-10.2-12.13 0-6.18 3.16-11.87 9.94-11.87 2.72 0 5.26.87 6.79 3.28h.09V11.7c0-3.24-.43-3.68-1.27-3.68-.74 0-1.4.265-2.01.265-.87 0-1.49-.613-1.49-1.445 0-.963.84-1.62 1.67-1.62 1.23 0 1.89.48 3.11.48 1.14 0 1.75-.48 2.63-.48.48 0 .74.35.74 1.882V29.57zm-16.55-4.82c0 4.29 1.93 8.93 6.79 8.93 2.23 0 4.38-.97 5.39-3.02.88-1.76 1.01-4.12 1.01-6.18 0-2.1-.13-4.6-1.4-6.35s-3.11-2.49-5.25-2.49c-5.03 0-6.52 4.86-6.52 9.1zm25.58.39c-.17 4.46 2.24 8.54 7.05 8.54 2.98 0 5.21-1.49 6.05-4.34.27-.92.48-1.93 1.67-1.93.97 0 1.76.66 1.76 1.66 0 1.8-1.31 3.85-2.58 5.04-1.84 1.75-4.64 2.54-7.14 2.54-6.87 0-10.42-5.13-10.42-11.61 0-2.98.75-6.18 2.59-8.54 1.97-2.5 4.91-3.86 8.06-3.86 5.91 0 9.94 4.24 9.94 10.11 0 2.19 0 2.36-2.1 2.36h-14.85zm13.31-3.15c-.21-3.59-2.27-6.35-6.17-6.35-3.76 0-6.43 2.67-6.74 6.35h12.92zM46.45 11.46c0-3.59-.652-3.68-1.27-3.68-.74 0-1.4.266-2.404.266-.876 0-1.488-.61-1.488-1.44 0-1.01.963-1.62 2.014-1.62 1.357 0 2.06.48 2.934.48 1.14 0 1.533-.48 2.365-.48 1.1 0 1.23.7 1.23 2.277v22.07c0 3.195.53 3.676 1.27 3.676s1.4-.26 2.02-.26c.88 0 1.49.61 1.49 1.44 0 1.01-.96 1.62-1.88 1.62-1.49 0-2.36-.48-4.51-.48-2.01 0-3.1.48-4.64.48-.92 0-1.88-.61-1.88-1.62 0-.83.61-1.45 1.49-1.45.61 0 1.27.26 2.01.26 1.06 0 1.28-1.19 1.28-3.68V11.47zm27.24 17.3c-.044 1.36-.438 4.774 1.664 4.774 1.884 0 1.578-2.803 1.578-4.072 0-1.227-.176-2.627 1.402-2.627 1.22 0 1.53.785 1.53 1.793 0 3.33 0 4.82-.92 6.043-.88 1.23-2.41 1.58-3.86 1.58-2.15 0-4.03-.96-4.47-3.15-1.536 2.46-4.29 3.33-7.098 3.33-1.796 0-3.68-.31-5.21-1.27-1.797-1.14-2.936-3.02-2.936-5.21 0-2.45.963-4.38 2.977-5.56 1.93-1.14 3.723-1.31 5.87-1.57 2.626-.27 6.086-.22 6.086-3.46 0-2.94-2.366-3.94-4.95-3.94-1.14 0-2.41.39-3.37.96-.35.22-1.01.66-1.01 1.14 0 .22 1.05.26 1.05 1.79 0 1.32-1.136 2.06-2.362 2.06-1.53 0-2.71-1.22-2.71-2.8 0-1.88 1.23-3.46 2.72-4.51 1.58-1.09 3.86-1.62 5.78-1.62 2.06 0 4.34.48 6 1.75 2.15 1.67 2.45 4.03 2.41 6.66l-.17 7.93zm-10.12 4.69c2.058 0 4.204-.612 5.518-2.32.964-1.358 1.095-2.716 1.095-4.25 0-.92.044-1.882.088-2.802-1.62 1.576-4.02 1.664-6.13 1.883-2.32.23-5.12.79-5.12 3.82 0 2.63 2.24 3.68 4.56 3.68zm37.663-4.116c0 3.02.35 3.678 1.27 3.678.744 0 1.4-.262 2.014-.262.877 0 1.49.613 1.49 1.445 0 1.008-.7 1.62-1.445 1.62-.79 0-1.576-.48-2.584-.48-.965 0-1.314.48-2.365.48-1.14 0-1.533-.44-1.533-2.103v-.438h-.088c-1.357 2.234-4.16 3.152-6.744 3.152-6.963 0-10.203-5.78-10.203-12.13 0-6.175 3.152-11.868 9.94-11.868 2.716 0 5.255.875 6.788 3.285h.088v-4.248c0-3.242-.43-3.68-1.27-3.68-.74 0-1.4.264-2.01.264-.87 0-1.49-.62-1.49-1.45 0-.97.83-1.62 1.67-1.62 1.23 0 1.89.48 3.11.48 1.14 0 1.75-.48 2.63-.48.48 0 .75.35.75 1.88v22.47zM84.68 24.518c0 4.29 1.927 8.934 6.786 8.934 2.234 0 4.38-.965 5.387-3.02.877-1.753 1.008-4.118 1.008-6.177 0-2.102-.13-4.598-1.4-6.35-1.27-1.752-3.1-2.496-5.25-2.496-5.04-.01-6.52 4.86-6.52 9.1zm27.194-4.995c0-3.064-.305-3.678-1.27-3.678-.744 0-1.4.262-2.014.262-.877 0-1.49-.61-1.49-1.443 0-1.008.7-1.62 1.533-1.62 1.184 0 1.84.48 2.89.48 1.097 0 1.665-.48 2.497-.48 1.008 0 1.227 1.007 1.227 1.882v16.29c0 1.052.35 1.796 1.14 1.796.48 0 1.093-.307 1.75-.262.876 0 1.49.613 1.49 1.445 0 1.008-.964 1.62-1.884 1.62-1.488 0-2.627-.48-4.512-.48-1.83 0-3.1.48-4.64.48-.74 0-1.49-.788-1.49-1.62s.62-1.445 1.49-1.445c.62 0 1.27.262 2.02.262 1.01 0 1.27-.963 1.27-3.678v-9.81zm3.46-11.253c0 1.4-1.138 2.54-2.54 2.54-1.357 0-2.496-1.14-2.496-2.54 0-1.402 1.14-2.496 2.496-2.496 1.402 0 2.54 1.093 2.54 2.496zm9.372 16.64c-.174 4.467 2.234 8.54 7.05 8.54 2.98 0 5.212-1.49 6.044-4.335.264-.92.482-1.928 1.664-1.928.965 0 1.752.658 1.752 1.664 0 1.8-1.312 3.86-2.582 5.04-1.84 1.75-4.643 2.54-7.14 2.54-6.876 0-10.423-5.12-10.423-11.6 0-2.97.75-6.17 2.59-8.54 1.97-2.49 4.91-3.85 8.06-3.85 5.91 0 9.94 4.25 9.94 10.12 0 2.19 0 2.37-2.1 2.37h-14.85zm13.313-3.152c-.22-3.592-2.28-6.35-6.18-6.35-3.77 0-6.44 2.67-6.75 6.35h12.92zm7.75-2.235c0-4.686 4.24-7.094 8.54-7.094 1.79 0 3.72.3 5.16 1.53-.14-1.01.26-1.84 1.4-1.84.92 0 1.49.52 1.49 1.44 0 1.09-.27 2.14-.27 3.24 0 1.09.26 2.19.26 3.24 0 .92-.57 1.62-1.58 1.62-.88 0-1.4-.66-1.4-2.1 0-1.71-.18-2.02-.97-2.59-1.14-.83-2.72-1.58-4.12-1.58-2.28 0-4.91 1.22-4.91 3.85 0 2.14 1.44 2.89 5.21 3.37 5.95.79 9.06 2.01 9.06 6.61 0 4.95-4.64 7.18-9.07 7.18-2.32 0-4.6-.57-6.4-2.06.22 1.62-.52 2.45-1.49 2.45-1.14 0-1.67-.84-1.67-1.84 0-1.27.35-2.45.35-3.68 0-1.14-.35-2.32-.35-3.51 0-.96.57-1.58 1.53-1.58.79 0 1.31.35 1.36 1.44.22 2.58.22 3.11 1.18 3.94 1.4 1.22 4.03 1.84 5.82 1.84 1.22 0 2.58-.22 3.59-1.01.87-.7 1.48-1.71 1.48-2.85 0-2.72-2.54-3.33-4.73-3.59-4.2-.48-9.544-1.09-9.544-6.48z" fill="#fff"/><path fill="#AA248F" d="M30.32 21.79l4.71-4.708c.547-.547.36-1.25-.182-1.795-.545-.545-1.248-.727-1.793-.182l-4.71 4.71-4.443-4.444 4.71-4.7c.545-.54.363-1.25-.183-1.79-.55-.54-1.25-.73-1.8-.18l-4.71 4.71-4.61-4.61c-.55-.54-1.35-.46-1.9.08-.55.55-.63 1.35-.08 1.9l4.6 4.61-4.45 4.45-4.61-4.6c-.55-.54-1.35-.46-1.9.08-.54.55-.62 1.35-.08 1.9l4.61 4.61-4.6 4.61c-.55.55-.47 1.35.07 1.9.55.55 1.35.63 1.9.08l4.6-4.6 4.44 4.44-4.61 4.6c-.55.55-.47 1.36.08 1.9s1.35.63 1.9.08l4.61-4.6 4.71 4.71c.54.54 1.25.36 1.79-.18.55-.55.73-1.25.18-1.8l-4.71-4.71 4.44-4.44 4.71 4.71c.54.55 1.24.366 1.79-.18.54-.546.73-1.25.18-1.79l-4.71-4.71zm-8.393 4.442l-4.443-4.443 4.442-4.45 4.445 4.44-4.44 4.44z"/></svg>