<svg xmlns="http://www.w3.org/2000/svg" xmlns:xlink="http://www.w3.org/1999/xlink" version="1.1" x="0px" y="0px" viewBox="0 0 59.02 73.01249999999999" enable-background="new 0 0 59.02 58.41" xml:space="preserve"><g><path d="M57.76,26.7c2.03-2.61,1.15-5.05,0.46-5.9c-1.65-2.48-3.95-3.9-6.85-4.28c0.27-0.22,0.52-0.45,0.76-0.68   c1.76-1.66,2.6-3.44,2.51-5.28C54.49,7.74,52.15,5.91,52,5.8c-1.07-0.73-2.28-1.1-3.6-1.1c-2.86,0-5.24,1.76-5.34,1.83L42.89,6.7   c-0.07,0.09-0.14,0.19-0.21,0.28c-0.45-2.32-1.71-4.16-3.73-5.48C38.6,1.23,36.94,0,34.7,0c-0.97,0-1.91,0.23-2.8,0.68   c-0.44,0.22-0.84,0.51-1.22,0.83c-0.54-0.15-1.1-0.26-1.67-0.26c-0.57,0-1.13,0.09-1.65,0.28c-1.55,0.55-2.57,1.87-2.72,3.53   c-0.16,1.77,0.73,3.48,2.27,4.37c1.41,0.81,3.1,2.3,4.67,5.05c-0.93-0.06-1.84,0.04-2.69,0.34C23.81,16.65,3.72,46.09,0.15,55.65   c-0.26,0.69-0.19,1.4,0.19,1.95c0.36,0.52,0.95,0.82,1.6,0.82h0c0.27,0,0.54-0.05,0.81-0.15c9.63-3.59,39.19-23.59,40.99-28.58   c0.25-0.68,0.36-1.4,0.37-2.14c2.74,1.34,4.19,2.65,4.95,3.69c1.1,1.51,2.88,2.45,4.65,2.45c1.5,0,2.83-0.68,3.65-1.86   c1.2-1.73,0.78-3.61,0.14-4.83C57.59,26.89,57.68,26.79,57.76,26.7z M56.61,21.97c0.01,0.01,1.09,1.4-0.31,3.34   c-0.1-0.12-0.21-0.22-0.31-0.34c-0.17-0.2-0.35-0.39-0.53-0.57c-0.22-0.22-0.44-0.43-0.67-0.64c-0.19-0.17-0.37-0.34-0.56-0.49   c-0.23-0.19-0.47-0.37-0.72-0.55c-0.2-0.14-0.39-0.28-0.59-0.41c-0.25-0.16-0.51-0.31-0.78-0.46c-0.2-0.11-0.4-0.23-0.61-0.33   c-0.28-0.14-0.56-0.25-0.85-0.37c-0.2-0.08-0.41-0.17-0.61-0.25c-0.31-0.11-0.63-0.19-0.94-0.28c-0.2-0.05-0.39-0.12-0.59-0.16   c-0.36-0.08-0.73-0.13-1.11-0.19c-0.17-0.02-0.34-0.06-0.51-0.08c-0.55-0.06-1.11-0.09-1.69-0.09c0,0,0,0,0,0c0,0,0,0,0,0   c-0.5,0-0.98,0.03-1.46,0.07c-0.09,0.01-0.17,0.01-0.26,0.02c-0.49,0.05-0.97,0.12-1.44,0.2c-0.03,0.01-0.06,0.01-0.09,0.01   c0.44-0.2,0.91-0.4,1.39-0.59c0.04-0.01,0.07-0.03,0.11-0.04c0.22-0.09,0.45-0.17,0.68-0.25c0.05-0.02,0.1-0.04,0.15-0.05   c0.23-0.08,0.46-0.16,0.7-0.23c0.04-0.01,0.09-0.03,0.13-0.04c0.75-0.23,1.52-0.43,2.29-0.56c0.05-0.01,0.11-0.02,0.16-0.03   c0.2-0.03,0.4-0.06,0.6-0.08c0.54-0.07,1.08-0.12,1.61-0.12C52.78,18.41,54.99,19.55,56.61,21.97z M44.35,8.07   c0.41-0.28,2.14-1.37,4.05-1.37c0.91,0,1.74,0.25,2.43,0.72c0.02,0.01,1.71,1.36,1.8,3.24c0.06,1.23-0.57,2.48-1.88,3.73   c-0.77,0.73-1.71,1.45-2.78,2.14c-0.07,0.01-0.14,0.02-0.2,0.03c-0.26,0.04-0.52,0.08-0.78,0.12c-0.12,0.02-0.23,0.04-0.35,0.07   c-0.27,0.06-0.55,0.11-0.82,0.18c-0.1,0.02-0.19,0.05-0.29,0.07c-0.29,0.07-0.57,0.15-0.85,0.24c-0.07,0.02-0.14,0.04-0.2,0.06   c-0.31,0.1-0.61,0.19-0.91,0.3c-0.03,0.01-0.05,0.02-0.08,0.03c-1.38,0.49-2.65,1.07-3.74,1.62c0.61-1.13,1.25-2.48,1.8-3.93   c0.03-0.09,0.07-0.18,0.1-0.27c0.09-0.26,0.18-0.52,0.27-0.79c0.05-0.14,0.1-0.29,0.14-0.43c0.08-0.25,0.14-0.5,0.21-0.76   c0.04-0.16,0.09-0.32,0.13-0.49c0.06-0.25,0.11-0.5,0.16-0.76c0.03-0.17,0.07-0.34,0.09-0.5c0.04-0.25,0.08-0.5,0.11-0.75   c0.01-0.09,0.03-0.18,0.04-0.26C43.31,9.47,43.82,8.73,44.35,8.07z M32.84,2.45C33.44,2.15,34.07,2,34.7,2c1.7,0,2.99,1.07,3,1.08   c0.03,0.03,0.07,0.06,0.11,0.08c1.61,1.03,2.56,2.42,2.91,4.25c0.15,0.78,0.17,1.59,0.11,2.42l-0.01,0.09   c-0.13,1.57-0.57,3.18-1.14,4.68c0.11-2.6-0.4-5.41-2.21-7.95c-0.02-0.03-0.04-0.05-0.06-0.08c-0.16-0.22-0.33-0.44-0.51-0.66   c-0.05-0.06-0.1-0.12-0.16-0.18c-0.16-0.18-0.32-0.36-0.49-0.54c-0.07-0.07-0.14-0.14-0.21-0.22c-0.18-0.17-0.36-0.35-0.55-0.52   c-0.07-0.07-0.14-0.13-0.22-0.2c-0.27-0.23-0.55-0.46-0.85-0.68c-0.01-0.01-0.06-0.05-0.13-0.11c-0.05-0.04-0.14-0.11-0.22-0.17   c-0.04-0.03-0.06-0.05-0.11-0.09c-0.09-0.07-0.2-0.14-0.31-0.22c-0.07-0.05-0.12-0.09-0.2-0.14c-0.1-0.07-0.22-0.14-0.34-0.22   C33.03,2.56,32.95,2.51,32.84,2.45z M27.91,7.7c-0.86-0.5-1.36-1.46-1.27-2.45c0.04-0.42,0.25-1.42,1.39-1.83   c0.3-0.11,0.63-0.16,0.98-0.16c0.74,0,1.47,0.24,2.12,0.54c0.08,0.04,0.15,0.08,0.23,0.12c0.12,0.06,0.24,0.13,0.36,0.19   c0.06,0.04,0.12,0.07,0.18,0.11c0.15,0.09,0.29,0.18,0.41,0.26c0.01,0.01,0.03,0.02,0.04,0.03c0.15,0.1,0.27,0.19,0.39,0.28   c0.03,0.02,0.05,0.04,0.08,0.06c0.08,0.06,0.15,0.11,0.2,0.16c0.02,0.02,0.04,0.03,0.06,0.05c0.04,0.03,0.08,0.07,0.09,0.08   C33.6,5.45,34,5.79,34.37,6.14c0.11,0.1,0.19,0.21,0.29,0.31c0.26,0.26,0.5,0.52,0.73,0.8c0.1,0.12,0.18,0.24,0.27,0.37   c0.2,0.28,0.4,0.56,0.57,0.85c0.07,0.11,0.13,0.23,0.2,0.34c0.19,0.35,0.36,0.7,0.5,1.07c0.02,0.06,0.05,0.11,0.07,0.17   c0.7,1.88,0.86,4.01,0.47,6.38c-0.27,1.64-0.78,3.14-1.26,4.29c-0.17-0.61-0.35-1.18-0.53-1.74c-0.03-0.09-0.06-0.18-0.09-0.27   c-0.17-0.51-0.35-0.99-0.53-1.46c-0.03-0.08-0.06-0.16-0.09-0.24C32.83,11.56,30.09,8.94,27.91,7.7z M41.87,29   c-0.54,1.5-4.3,4.77-9.37,8.56c-0.09-0.04-0.17-0.07-0.27-0.08c-1.63-0.18-3.75-1.02-4.79-2.5c-0.32-0.45-0.94-0.56-1.39-0.24   c-0.45,0.32-0.56,0.94-0.24,1.39c1.11,1.57,2.92,2.53,4.56,3c-3.18,2.3-6.72,4.73-10.25,7.02c-0.15-0.13-0.33-0.23-0.54-0.26   c-1.03-0.11-2.35-0.63-2.99-1.55c-0.32-0.45-0.94-0.56-1.39-0.24c-0.45,0.32-0.56,0.94-0.24,1.39c0.73,1.04,1.89,1.7,2.98,2.06   c-6.47,4.12-12.59,7.61-15.88,8.83c-0.02,0.01-0.04,0.01-0.06,0.02c0-0.02,0.01-0.04,0.02-0.06c0.81-2.16,2.31-5.08,4.2-8.35   c0.04,0.04,0.06,0.08,0.1,0.11c0.72,0.53,1.48,0.98,2.27,1.36c0.14,0.07,0.29,0.1,0.43,0.1c0.37,0,0.73-0.21,0.9-0.57   c0.24-0.5,0.03-1.1-0.47-1.33c-0.67-0.32-1.33-0.71-1.95-1.17c-0.1-0.07-0.2-0.11-0.31-0.15c2.34-3.91,5.15-8.21,8-12.3   c0.38,0.99,1.01,1.99,1.95,2.65c0.18,0.12,0.38,0.18,0.58,0.18c0.31,0,0.62-0.15,0.82-0.42c0.32-0.45,0.21-1.08-0.24-1.39   c-0.91-0.65-1.44-1.97-1.55-2.99c-0.01-0.06-0.04-0.1-0.05-0.16c2.21-3.11,4.4-6.02,6.34-8.45c0.48,1.65,1.43,3.46,3.01,4.57   c0.18,0.12,0.38,0.18,0.58,0.18c0.31,0,0.62-0.15,0.82-0.42c0.32-0.45,0.21-1.08-0.24-1.39c-1.48-1.05-2.33-3.16-2.5-4.79   c0-0.04-0.03-0.08-0.04-0.12c2.25-2.68,4.03-4.47,4.92-4.79c0.49-0.17,1-0.26,1.53-0.26c0.5,0,1.03,0.08,1.58,0.24   c0.44,0.99,0.84,2.07,1.21,3.22c0.02,0.08,0.05,0.15,0.07,0.23c0.15,0.49,0.29,0.99,0.43,1.5c0.03,0.11,0.06,0.22,0.09,0.34   c0.16,0.61,0.31,1.23,0.45,1.87c0.01,0.04,0.03,0.08,0.04,0.12c0.01,0.04,0.02,0.08,0.04,0.12c0.01,0.01,0.01,0.02,0.02,0.03   c0.02,0.03,0.04,0.05,0.06,0.08c0.01,0.01,0.01,0.01,0.02,0.02c0.02,0.03,0.04,0.06,0.07,0.09c0.01,0.01,0.01,0.01,0.02,0.02   c0,0,0,0,0,0c0,0,0,0,0,0c0,0,0.01,0,0.01,0.01c0.03,0.03,0.06,0.05,0.09,0.07c0.01,0.01,0.01,0.01,0.02,0.02   c0.03,0.02,0.05,0.04,0.08,0.06c0.01,0.01,0.02,0.01,0.03,0.02c0.02,0.01,0.05,0.02,0.07,0.03c0.02,0.01,0.05,0.02,0.07,0.02   c0.03,0.01,0.06,0.03,0.09,0.04c0.58,0.15,1.13,0.3,1.68,0.45c0.12,0.04,0.24,0.07,0.36,0.11c0.43,0.12,0.85,0.25,1.26,0.38   c0.11,0.03,0.2,0.07,0.31,0.1c0.43,0.14,0.84,0.28,1.25,0.42c0.07,0.02,0.14,0.05,0.21,0.07c0.46,0.17,0.91,0.33,1.34,0.51   c0,0,0,0,0.01,0C42.2,27.48,42.13,28.26,41.87,29z M55.73,30.67c-0.45,0.65-1.16,1-2.01,1c-1.14,0-2.31-0.62-3.04-1.62   c-1.38-1.9-3.85-3.59-7.34-5.05c-0.01,0-0.01-0.01-0.02-0.01c-0.04-0.01-0.07-0.03-0.11-0.04c-0.3-0.13-0.62-0.25-0.94-0.37   c-0.27-0.11-0.55-0.21-0.83-0.31c-0.3-0.11-0.59-0.21-0.9-0.32c-0.4-0.13-0.81-0.26-1.22-0.39c-0.18-0.06-0.34-0.12-0.53-0.17   c0.13-0.05,0.27-0.1,0.41-0.15c0.13-0.05,0.27-0.1,0.41-0.14c0.06-0.02,0.12-0.04,0.18-0.06c0.16-0.05,0.33-0.11,0.5-0.16   c0.04-0.01,0.08-0.02,0.12-0.03c0.2-0.06,0.4-0.12,0.62-0.17c0.01,0,0.02,0,0.03-0.01c0.97-0.25,2.08-0.45,3.26-0.53   c0.2-0.01,0.41-0.02,0.62-0.02c0.1,0,0.19-0.01,0.29-0.01c4.08,0,7.45,1.72,10.07,5.16l0.13,0.17c0,0.01,0.01,0.01,0.01,0.01   C55.78,27.91,56.65,29.35,55.73,30.67z"/><path d="M40.38,28.64c-2.05-0.78-3.94-2.18-5.64-4.17c-0.36-0.42-0.99-0.47-1.41-0.11c-0.42,0.36-0.47,0.99-0.11,1.41   c1.92,2.24,4.09,3.84,6.45,4.74c0.12,0.04,0.24,0.07,0.36,0.07c0.4,0,0.78-0.25,0.93-0.64C41.16,29.41,40.9,28.83,40.38,28.64z"/></g></svg>
