<svg xmlns="http://www.w3.org/2000/svg" viewBox="0 0 705 118">
  <title>CLC-Logo-White-Stroke-Parent-English-Plural</title>
  <g>
    <g>
      <path d="M58.56,116.56A57.56,57.56,0,1,1,116.12,59,57.62,57.62,0,0,1,58.56,116.56Zm0-108.08A50.52,50.52,0,1,0,109.08,59,50.58,50.58,0,0,0,58.56,8.48Z" style="fill: #fff"/>
      <path d="M79.65,59,91.23,47.42a3.52,3.52,0,0,0-5-5L74.69,54,63.52,42.87,75.1,31.29a3.28,3.28,0,0,0-.2-4.76,3.28,3.28,0,0,0-4.76-.2L58.56,37.91,47,26.33a3.28,3.28,0,0,0-4.76.2,3.28,3.28,0,0,0-.2,4.76L53.6,42.87,42.43,54,30.85,42.46a3.28,3.28,0,0,0-4.76.2,3.28,3.28,0,0,0-.2,4.76L37.47,59,25.89,70.58a3.28,3.28,0,0,0,.2,4.76,3.28,3.28,0,0,0,4.76.2L42.43,64,53.6,75.13,42,86.71a3.52,3.52,0,0,0,5,5L58.56,80.09,70.14,91.67a3.52,3.52,0,0,0,5-5L63.52,75.13,74.69,64,86.26,75.54a3.52,3.52,0,0,0,5-5ZM58.56,70.16,47.4,59,58.56,47.84,69.72,59Z" style="fill: #fff"/>
    </g>
    <g>
      <path d="M177.86,77.3l-6.35,3.64a8.06,8.06,0,0,0-7.21-4c-4.79,0-8.34,3.6-8.34,8.8,0,5.63,3.86,8.8,8.36,8.8a8.44,8.44,0,0,0,7.32-4l5.94,4.2a15.36,15.36,0,0,1-13.19,6.72c-9.36,0-16-6.54-16-15.73S155,70,164.38,70C170.19,70,175.26,72.71,177.86,77.3Z" style="fill: #fff"/>
      <path d="M202,100.89l-2.3-6.37h-12l-2.3,6.37h-7.56l11.63-30.33H198l11.63,30.33ZM197.32,88l-3.68-10.23L190,88Z" style="fill: #fff"/>
      <path d="M233.07,100.89l-13.82-18.5v18.5H212V70.56h6.93l13.82,18.5V70.56H240v30.33Z" style="fill: #fff"/>
      <path d="M266.57,100.89l-2.3-6.37h-12l-2.3,6.37h-7.56L254,70.56h8.64l11.63,30.33ZM261.94,88l-3.68-10.23L254.57,88Z" style="fill: #fff"/>
      <path d="M305.36,85.73c0,9.14-6.28,15.17-15.75,15.17h-13V70.56h13C299.07,70.56,305.36,76.58,305.36,85.73ZM283.87,94.2h5.59c5.63,0,8.34-3.57,8.34-8.47s-2.71-8.47-8.34-8.47h-5.59Z" style="fill: #fff"/>
      <path d="M328.65,100.89l-2.3-6.37h-12l-2.3,6.37h-7.56l11.63-30.33h8.64l11.63,30.33ZM324,88l-3.68-10.23L316.64,88Z" style="fill: #fff"/>
      <path d="M349.29,100.89V70.56h7.24V94.18h15.25v6.72Z" style="fill: #fff"/>
      <path d="M374.15,100.89V70.56h23.14v6.52h-15.9v5.24h15v6.5h-15v5.55h16v6.52Z" style="fill: #fff"/>
      <path d="M423.69,100.89l-2.3-6.37h-12l-2.3,6.37h-7.56l11.63-30.33h8.64l11.63,30.33ZM419.05,88l-3.68-10.23L411.69,88Z" style="fill: #fff"/>
      <path d="M458.2,80.27c0,4.79-3,8.19-8.47,9.06l8.71,11.57h-8.62l-8-11.35h-1.06v11.35h-7.24V70.56h13.19C454.23,70.56,458.2,74.29,458.2,80.27Zm-17.44,3.18h5.87c2.62,0,4.2-1,4.2-3.18s-1.65-3.14-4.2-3.14h-5.87Z" style="fill: #fff"/>
      <path d="M482.88,100.89l-13.82-18.5v18.5h-7.24V70.56h6.93l13.82,18.5V70.56h7.26v30.33Z" style="fill: #fff"/>
      <path d="M494.79,100.89V70.56H502v30.33Z" style="fill: #fff"/>
      <path d="M528,100.89l-13.82-18.5v18.5H507V70.56h6.93l13.82,18.5V70.56H535v30.33Z" style="fill: #fff"/>
      <path d="M565.91,74.4l-5.16,5.07a8.46,8.46,0,0,0-6.48-2.66c-4.85,0-8.34,3.64-8.34,8.93,0,5.81,3.86,9.1,8.36,9.1,4.33,0,6.82-1.86,7.67-5.48h-7.39V83.76h14.56a16.48,16.48,0,0,1,.15,2.27c0,9.71-6.93,15.4-14.73,15.4-9,0-16.08-6.26-16.08-15.71,0-9.21,6.69-15.73,16.14-15.73C559.48,70,563.25,71.62,565.91,74.4Z" style="fill: #fff"/>
      <path d="M612.23,77.3l-6.35,3.64a8.06,8.06,0,0,0-7.21-4c-4.79,0-8.34,3.6-8.34,8.8,0,5.63,3.86,8.8,8.36,8.8a8.44,8.44,0,0,0,7.32-4l5.94,4.2a15.36,15.36,0,0,1-13.19,6.72c-9.36,0-16-6.54-16-15.73S589.4,70,598.75,70C604.56,70,609.63,72.71,612.23,77.3Z" style="fill: #fff"/>
      <path d="M645,85.73c0,9.08-6.63,15.73-16,15.73s-16-6.65-16-15.73S619.64,70,629,70,645,76.65,645,85.73Zm-24.44,0c0,5.2,3.51,8.8,8.45,8.8s8.45-3.6,8.45-8.8-3.51-8.8-8.45-8.8S620.55,80.53,620.55,85.73Z" style="fill: #fff"/>
      <path d="M677.19,85.73c0,9.14-6.28,15.17-15.75,15.17h-13V70.56h13C670.91,70.56,677.19,76.58,677.19,85.73ZM655.7,94.2h5.59c5.63,0,8.34-3.57,8.34-8.47s-2.71-8.47-8.34-8.47H655.7Z" style="fill: #fff"/>
      <path d="M680.66,100.89V70.56H703.8v6.52H687.9v5.24h15v6.5h-15v5.55h16v6.52Z" style="fill: #fff"/>
    </g>
    <g>
      <path d="M152.19,38.75V16.32h14.69v2.3H154.62v7.55h11.9v2.3h-11.9v8h12.25v2.3Z" style="fill: #fff"/>
      <path d="M182,25.15V16.32h2.37V38.75h-2.27V36.61a6.82,6.82,0,0,1-5.38,2.5,6.66,6.66,0,0,1-5.25-2.37,8.52,8.52,0,0,1-2-5.82,8.52,8.52,0,0,1,2-5.82,6.59,6.59,0,0,1,5.25-2.4A6.7,6.7,0,0,1,182,25.15Zm-10.14,5.76a6.51,6.51,0,0,0,1.38,4.29,4.56,4.56,0,0,0,3.71,1.7,4.62,4.62,0,0,0,3.74-1.7,6.52,6.52,0,0,0,1.41-4.29,6.52,6.52,0,0,0-1.41-4.29,4.62,4.62,0,0,0-3.74-1.7,4.56,4.56,0,0,0-3.71,1.7A6.5,6.5,0,0,0,171.88,30.91Z" style="fill: #fff"/>
      <path d="M199.41,38.75v-2a5.94,5.94,0,0,1-5,2.34c-3.94,0-5.89-2.3-5.89-6.91V23.07h2.37v9.22c0,3,1.31,4.58,3.84,4.58,3,0,4.54-2.21,4.54-6V23.07h2.37V38.75Z" style="fill: #fff"/>
      <path d="M219.43,36.09a7.77,7.77,0,0,1-6.27,3,7.51,7.51,0,0,1-5.63-2.37,8.2,8.2,0,0,1-2.24-5.82,8,8,0,0,1,2.3-5.79,7.56,7.56,0,0,1,5.66-2.43,7.27,7.27,0,0,1,5.86,2.78L217.51,27a5.37,5.37,0,0,0-4.26-2.11,5.14,5.14,0,0,0-4,1.73,6,6,0,0,0-1.57,4.26c0,3.49,2.14,6,5.63,6a5.44,5.44,0,0,0,4.45-2.3Z" style="fill: #fff"/>
      <path d="M222,34.33c0-3.1,2.34-4.93,5.79-4.93a15.39,15.39,0,0,1,4.29.77v-1.6c0-2.34-1.57-3.68-3.87-3.68a4.47,4.47,0,0,0-4.1,2.59L222.45,26a6.2,6.2,0,0,1,5.76-3.26c3.81,0,6.21,2.21,6.21,6.14v9.92h-2.3V37.12a6.2,6.2,0,0,1-4.86,2C224.27,39.1,222,37.31,222,34.33ZM227.37,37a5.88,5.88,0,0,0,4.67-2.5V32.38a13.25,13.25,0,0,0-4.16-.77c-2.4,0-3.55,1.12-3.55,2.78S225.58,37,227.37,37Z" style="fill: #fff"/>
      <path d="M239.14,34.14v-8.9h-2.56V23.07h2.56V18.69h2.37v4.38h3.65v2.18h-3.65v8.54c0,2,.51,2.85,2.4,2.85l1.25,0v2.14c-.42,0-.93.06-1.47.06C240.61,38.81,239.14,37.5,239.14,34.14Z" style="fill: #fff"/>
      <path d="M248.19,16.48a1.84,1.84,0,0,1,2.53,0,1.72,1.72,0,0,1,0,2.53,1.79,1.79,0,1,1-2.53-2.53Zm.1,22.27V23.07h2.37V38.75Z" style="fill: #fff"/>
      <path d="M256.53,36.73a8.2,8.2,0,0,1-2.24-5.82,8.2,8.2,0,0,1,2.24-5.82,7.81,7.81,0,0,1,11.26,0,8.12,8.12,0,0,1,2.3,5.82,8.23,8.23,0,0,1-2.27,5.82,7.92,7.92,0,0,1-11.3,0Zm9.57-1.54a6.24,6.24,0,0,0,1.54-4.29,6.1,6.1,0,0,0-1.54-4.26,5.31,5.31,0,0,0-7.84,0,6.1,6.1,0,0,0-1.54,4.26,6.24,6.24,0,0,0,1.54,4.29,5.38,5.38,0,0,0,7.84,0Z" style="fill: #fff"/>
      <path d="M276,23.07V25a6.43,6.43,0,0,1,5-2.3c4,0,6.24,2.5,6.24,6.94v9.12h-2.4V29.44c0-2.91-1.47-4.54-4-4.54-3.07,0-4.74,2.34-4.74,6.08v7.78H273.7V23.07Z" style="fill: #fff"/>
      <path d="M290.6,34.33c0-3.1,2.34-4.93,5.79-4.93a15.39,15.39,0,0,1,4.29.77v-1.6c0-2.34-1.57-3.68-3.87-3.68a4.47,4.47,0,0,0-4.1,2.59L291.08,26a6.2,6.2,0,0,1,5.76-3.26c3.81,0,6.21,2.21,6.21,6.14v9.92h-2.3V37.12a6.2,6.2,0,0,1-4.86,2C292.91,39.1,290.6,37.31,290.6,34.33ZM296,37a5.88,5.88,0,0,0,4.67-2.5V32.38a13.25,13.25,0,0,0-4.16-.77c-2.4,0-3.55,1.12-3.55,2.78S294.22,37,296,37Z" style="fill: #fff"/>
      <path d="M307.37,38.75V16.32h2.37V38.75Z" style="fill: #fff"/>
      <path d="M325.8,45h-2.37V23.07h2.3v2.14a6.74,6.74,0,0,1,5.34-2.53,6.59,6.59,0,0,1,5.25,2.4,8.52,8.52,0,0,1,2,5.82,8.52,8.52,0,0,1-2,5.82,6.66,6.66,0,0,1-5.25,2.37,6.58,6.58,0,0,1-5.28-2.43Zm10.14-14a6.5,6.5,0,0,0-1.38-4.29,4.56,4.56,0,0,0-3.71-1.7,4.62,4.62,0,0,0-3.74,1.7,6.5,6.5,0,0,0-1.38,4.29,6.51,6.51,0,0,0,1.38,4.29,4.62,4.62,0,0,0,3.74,1.7,4.56,4.56,0,0,0,3.71-1.7A6.51,6.51,0,0,0,335.94,30.91Z" style="fill: #fff"/>
      <path d="M350.16,25.15a3,3,0,0,0-.54,0c-3.71,0-5.22,1.86-5.22,6.94v6.69H342V23.07h2.3v2.08a5.81,5.81,0,0,1,5.12-2.3,5.14,5.14,0,0,1,.7,0Z" style="fill: #fff"/>
      <path d="M353.85,36.73a8.2,8.2,0,0,1-2.24-5.82,8.2,8.2,0,0,1,2.24-5.82,7.81,7.81,0,0,1,11.26,0,8.12,8.12,0,0,1,2.3,5.82,8.23,8.23,0,0,1-2.27,5.82,7.92,7.92,0,0,1-11.3,0Zm9.57-1.54A6.24,6.24,0,0,0,365,30.91a6.1,6.1,0,0,0-1.54-4.26,5.31,5.31,0,0,0-7.84,0A6.1,6.1,0,0,0,354,30.91a6.24,6.24,0,0,0,1.54,4.29,5.38,5.38,0,0,0,7.84,0Z" style="fill: #fff"/>
      <path d="M372.47,40.16a5.21,5.21,0,0,0,4.77,3c3.36,0,5.18-2.18,5.18-5.47V36a6,6,0,0,1-5.12,2.37,6.54,6.54,0,0,1-5.06-2.24,8,8,0,0,1-2-5.6,8,8,0,0,1,2-5.63,6.54,6.54,0,0,1,5.06-2.24,6.21,6.21,0,0,1,5.18,2.4v-2h2.3v14.4c0,4.77-2.91,7.84-7.55,7.84a7.27,7.27,0,0,1-6.5-3.49ZM374,34.59a4.44,4.44,0,0,0,3.52,1.57,4.5,4.5,0,0,0,3.55-1.57,5.89,5.89,0,0,0,1.41-4,5.92,5.92,0,0,0-1.41-4.06,4.5,4.5,0,0,0-3.55-1.57A4.44,4.44,0,0,0,374,26.5a5.9,5.9,0,0,0-1.38,4.06A5.87,5.87,0,0,0,374,34.59Z" style="fill: #fff"/>
      <path d="M397.35,25.15a3,3,0,0,0-.54,0c-3.71,0-5.22,1.86-5.22,6.94v6.69h-2.37V23.07h2.3v2.08a5.81,5.81,0,0,1,5.12-2.3,5.14,5.14,0,0,1,.7,0Z" style="fill: #fff"/>
      <path d="M399.37,34.33c0-3.1,2.34-4.93,5.79-4.93a15.39,15.39,0,0,1,4.29.77v-1.6c0-2.34-1.57-3.68-3.87-3.68a4.47,4.47,0,0,0-4.1,2.59L399.85,26a6.2,6.2,0,0,1,5.76-3.26c3.81,0,6.21,2.21,6.21,6.14v9.92h-2.3V37.12a6.2,6.2,0,0,1-4.86,2C401.67,39.1,399.37,37.31,399.37,34.33ZM404.78,37a5.88,5.88,0,0,0,4.67-2.5V32.38a13.25,13.25,0,0,0-4.16-.77c-2.4,0-3.55,1.12-3.55,2.78S403,37,404.78,37Z" style="fill: #fff"/>
      <path d="M418.43,23.07V25a5.64,5.64,0,0,1,4.51-2.27,5,5,0,0,1,4.67,2.59,5.62,5.62,0,0,1,4.9-2.59c4,0,6,2.3,6,6.94v9.12h-2.37V29.44c0-3-1.22-4.54-3.65-4.54-2.59,0-4,1.89-4,5.22v8.64h-2.37V29.6c0-3.14-1.18-4.7-3.52-4.7-2.69,0-4.13,1.89-4.13,5.22v8.64h-2.37V23.07Z" style="fill: #fff"/>
      <path d="M446.63,31.71c-3-.7-4.45-2.21-4.45-4.51a3.91,3.91,0,0,1,1.6-3.3,6.15,6.15,0,0,1,3.81-1.22,7.52,7.52,0,0,1,5.57,2.53l-1.6,1.7a5.66,5.66,0,0,0-4.13-2c-1.7,0-2.88.9-2.88,2.21s.77,2,2.34,2.3l2.46.58c3,.7,4.45,2.18,4.45,4.42,0,2.78-2.3,4.7-5.86,4.7a8.11,8.11,0,0,1-6.34-2.94l1.57-1.63a5.84,5.84,0,0,0,4.74,2.4c2.21,0,3.52-.9,3.52-2.4,0-1.12-.83-1.89-2.46-2.27Z" style="fill: #fff"/>
      <path d="M469.07,38.75h-2.3V16.32h2.37v8.83a6.7,6.7,0,0,1,5.28-2.46,6.59,6.59,0,0,1,5.25,2.4,8.52,8.52,0,0,1,2,5.82,8.52,8.52,0,0,1-2,5.82,6.66,6.66,0,0,1-5.25,2.37,6.76,6.76,0,0,1-5.34-2.5Zm10.21-7.84a6.5,6.5,0,0,0-1.38-4.29,4.56,4.56,0,0,0-3.71-1.7,4.62,4.62,0,0,0-3.74,1.7,6.5,6.5,0,0,0-1.38,4.29,6.51,6.51,0,0,0,1.38,4.29,4.62,4.62,0,0,0,3.74,1.7,4.56,4.56,0,0,0,3.71-1.7A6.51,6.51,0,0,0,479.27,30.91Z" style="fill: #fff"/>
      <path d="M489.64,45h-2.59l2.37-6-6.5-15.87h2.66l5.15,13,5.06-13h2.62Z" style="fill: #fff"/>
    </g>
  </g>
</svg>
