<svg xmlns="http://www.w3.org/2000/svg" viewBox="0 0 639 238">
  <title>CLC-Logo-Stroke-Horizontal-English</title>
  <g>
    <g>
      <path d="M334.56,29.38l-10,5.72a12.66,12.66,0,0,0-11.33-6.29c-7.52,0-13.1,5.65-13.1,13.81,0,8.85,6.06,13.81,13.13,13.81a13.26,13.26,0,0,0,11.5-6.26l9.32,6.6c-4.32,6.5-11.64,10.55-20.72,10.55-14.7,0-25.07-10.27-25.07-24.7s10.38-24.7,25.07-24.7C322.52,17.92,330.48,22.17,334.56,29.38Z" style="fill: #2c2c2c"/>
      <path d="M372.41,66.43l-3.61-10H349.89l-3.61,10H334.41L352.68,18.8h13.57l18.27,47.63Zm-7.28-20.28L359.34,30.1l-5.78,16.06Z" style="fill: #2c2c2c"/>
      <path d="M421.27,66.43,399.56,37.38V66.43H388.2V18.8h10.89l21.71,29.05V18.8h11.4V66.43Z" style="fill: #2c2c2c"/>
      <path d="M473.87,66.43l-3.61-10H451.35l-3.61,10H435.87L454.14,18.8h13.57L486,66.43Zm-7.28-20.28L460.81,30.1,455,46.15Z" style="fill: #2c2c2c"/>
      <path d="M534.77,42.62c0,14.36-9.87,23.81-24.73,23.81H489.66V18.8H510C524.91,18.8,534.77,28.26,534.77,42.62ZM501,55.92h8.78c8.85,0,13.1-5.61,13.1-13.3s-4.25-13.3-13.1-13.3H501Z" style="fill: #2c2c2c"/>
      <path d="M571.34,66.43l-3.61-10H548.82l-3.61,10H533.34L551.61,18.8h13.57l18.27,47.63Zm-7.28-20.28L558.28,30.1,552.5,46.15Z" style="fill: #2c2c2c"/>
      <path d="M292.17,142.89V95.26h11.36v37.08h24v10.55Z" style="fill: #2c2c2c"/>
      <path d="M331.21,142.89V95.26h36.33V105.5h-25v8.23h23.51v10.21H342.57v8.71h25.11v10.24Z" style="fill: #2c2c2c"/>
      <path d="M409,142.89l-3.61-10H386.48l-3.61,10H371l18.27-47.63h13.57l18.27,47.63Zm-7.28-20.28-5.78-16.06-5.78,16.06Z" style="fill: #2c2c2c"/>
      <path d="M463.19,110.5c0,7.52-4.76,12.86-13.3,14.22l13.68,18.17H450l-12.55-17.83H435.8v17.83H424.44V95.26h20.72C457,95.26,463.19,101.11,463.19,110.5Zm-27.39,5H445c4.12,0,6.6-1.6,6.6-5s-2.59-4.93-6.6-4.93H435.8Z" style="fill: #2c2c2c"/>
      <path d="M501.94,142.89l-21.71-29.05v29.05H468.88V95.26h10.89l21.71,29.05V95.26h11.4v47.63Z" style="fill: #2c2c2c"/>
      <path d="M520.65,142.89V95.26H532v47.63Z" style="fill: #2c2c2c"/>
      <path d="M572.86,142.89l-21.71-29.05v29.05H539.8V95.26h10.89l21.71,29.05V95.26h11.4v47.63Z" style="fill: #2c2c2c"/>
      <path d="M632.33,101.28l-8.1,8a13.28,13.28,0,0,0-10.17-4.18c-7.62,0-13.1,5.72-13.1,14,0,9.12,6.06,14.29,13.13,14.29,6.8,0,10.72-2.93,12-8.61h-11.6V116H637.4a25.89,25.89,0,0,1,.24,3.57c0,15.24-10.89,24.19-23.13,24.19-14.15,0-25.24-9.83-25.24-24.67,0-14.46,10.51-24.7,25.35-24.7C622.23,94.38,628.15,96.93,632.33,101.28Z" style="fill: #2c2c2c"/>
      <path d="M334.56,182.3l-10,5.72a12.66,12.66,0,0,0-11.33-6.29c-7.52,0-13.1,5.65-13.1,13.81,0,8.85,6.06,13.81,13.13,13.81a13.26,13.26,0,0,0,11.5-6.26l9.32,6.6c-4.32,6.5-11.64,10.55-20.72,10.55-14.7,0-25.07-10.27-25.07-24.7s10.38-24.7,25.07-24.7C322.52,170.84,330.48,175.09,334.56,182.3Z" style="fill: #2c2c2c"/>
      <path d="M386,195.53c0,14.25-10.41,24.7-25.11,24.7s-25.11-10.44-25.11-24.7,10.41-24.7,25.11-24.7S386,181.28,386,195.53Zm-38.38,0c0,8.16,5.51,13.81,13.27,13.81s13.27-5.65,13.27-13.81-5.51-13.81-13.27-13.81S347.62,187.37,347.62,195.53Z" style="fill: #2c2c2c"/>
      <path d="M436.56,195.53c0,14.36-9.87,23.81-24.73,23.81H391.45V171.72h20.38C426.7,171.72,436.56,181.18,436.56,195.53Zm-33.75,13.3h8.78c8.85,0,13.1-5.61,13.1-13.3s-4.25-13.3-13.1-13.3h-8.78Z" style="fill: #2c2c2c"/>
      <path d="M442,219.35V171.72h36.33V182h-25v8.23h23.51V200.4H453.38v8.71h25.11v10.24Z" style="fill: #2c2c2c"/>
    </g>
    <g>
      <path d="M119.05,237.1A118.05,118.05,0,1,1,237.1,119.05,118.18,118.18,0,0,1,119.05,237.1Zm0-221.67A103.62,103.62,0,1,0,222.67,119.05,103.74,103.74,0,0,0,119.05,15.43Z" style="fill: #ef0919"/>
      <path d="M162.3,119.05,186.05,95.3c2.81-2.81,2.4-7-.41-9.77s-7-3.22-9.77-.41l-23.75,23.75L129.23,86,153,62.23c2.81-2.81,2.4-7-.41-9.77s-7-3.22-9.77-.41L119.05,75.8,95.3,52c-2.81-2.81-7-2.4-9.77.41s-3.22,7-.41,9.77L108.87,86,86,108.87,62.23,85.12c-2.81-2.81-7-2.4-9.77.41s-3.22,7-.41,9.77L75.8,119.05,52,142.8c-2.81,2.81-2.4,7,.41,9.77s7,3.22,9.77.41L86,129.23l22.89,22.89L85.12,175.87c-2.81,2.81-2.4,7,.41,9.77s7,3.22,9.77.41l23.75-23.75,23.75,23.75c2.81,2.81,7,2.4,9.77-.41s3.22-7,.41-9.77l-23.75-23.75,22.89-22.89L175.87,153c2.81,2.81,7,2.4,9.77-.41s3.22-7,.41-9.77Zm-43.25,22.89L96.16,119.05l22.89-22.89,22.89,22.89Z" style="fill: #ef0919"/>
    </g>
  </g>
</svg>
