<svg xmlns="http://www.w3.org/2000/svg" xmlns:xlink="http://www.w3.org/1999/xlink" version="1.1" x="0px" y="0px" viewBox="0 0 100 125" enable-background="new 0 0 100 100" xml:space="preserve"><path fill="#000000" d="M88.579,55.746c0.084-0.938,0.122-1.886,0.102-2.841c-0.14-6.548-2.834-12.664-7.399-16.865  c-0.669-2.387-1.724-4.672-3.192-6.73c-3.102-4.349-8.159-6.712-13.703-6.476c-0.353-1.346-0.952-2.707-1.96-3.764  c-1.126-1.181-2.626-1.813-4.337-1.829c-0.018,0-0.034,0-0.052,0c-2.55,0-4.59,1.732-6.175,4.01c-1.564-1.017-3.3-1.783-5.021-2.182  c-3.836-0.888-7.727,0.33-10.144,2.907L19.387,7.263c-0.714-0.612-1.728-0.632-2.467-0.048c-0.738,0.584-0.951,1.576-0.516,2.418  l12.544,23.975c-0.725,0.142-1.476,0.151-2.207,0.018c-1.01-0.183-1.994-0.639-2.854-1.327c-0.076-0.064-0.216-0.184-0.415-0.287  c-0.398-0.206-0.868-0.224-1.281-0.047c-0.413,0.177-0.725,0.529-0.85,0.96c-0.148,0.51-0.074,1.006-0.025,1.335l0.016,0.111  c0.051,0.408,0.138,0.82,0.265,1.26c0.464,1.609,1.323,3.035,2.484,4.123c0.302,0.283,0.617,0.542,0.94,0.782  c-2.913,3.255-6.075,6.781-8.969,9.934l-0.864,0.936c-2.76,2.98-5.613,6.062-7.089,10.084C6.483,65.9,6.959,72.118,11.824,75.353  c2.565,1.705,5.965,2.438,10.096,2.174c1.032-0.066,1.938-0.178,2.768-0.344c0.006-0.001,0.012-0.003,0.017-0.004  c0.009-0.002,0.018-0.004,0.027-0.006c0.018-0.004,0.037-0.008,0.055-0.013c0.188-0.051,4.035-1.125,6.287-3.797  c3.207,1.84,8.488,3.49,13.069,1.101c-0.981,3.872-2.405,9.872-3.456,15.888c-0.143,0.816,0.403,1.593,1.22,1.735  c0.087,0.015,0.174,0.023,0.26,0.023c0.715,0,1.349-0.514,1.476-1.243c1.365-7.816,3.375-15.622,4.175-18.615  c0.224-0.838-0.128-1.693-0.876-2.129c-0.75-0.439-1.673-0.322-2.294,0.289c-5.264,5.177-12.803-0.09-13.119-0.315  c-0.354-0.254-0.803-0.342-1.228-0.24c-0.424,0.103-0.783,0.386-0.982,0.774c-0.674,1.317-2.189,2.299-3.492,2.922  c-0.134-2.854-0.457-5.307-1-7.583c-0.641-2.682-1.583-5.297-2.799-7.773c-1.036-2.108-2.324-4.029-3.594-5.885  c3.019-3.294,6.312-6.969,9.303-10.311c1.678,0.644,3.458,0.92,5.17,0.92c1.765,0,3.453-0.279,4.866-0.708  c2.371-0.72,4.65-2.092,6.593-3.968c0.96-0.928,1.843-1.95,2.623-3.036c0.393-0.547,0.76-1.112,1.091-1.681  c0.006-0.01,0.01-0.021,0.016-0.032c0.154,0.107,0.33,0.188,0.524,0.231c0.806,0.181,1.611-0.326,1.792-1.134  c0.087-0.385,0.207-0.858,0.355-1.387c0.012-0.041,0.026-0.082,0.035-0.123c1.112-3.911,3.792-10.844,7.238-10.844  c0.008,0,0.016,0,0.024,0c0.907,0.008,1.625,0.303,2.194,0.899c1.301,1.363,1.68,4.095,1.601,6.198  c-0.155,4.123-3.155,7.546-7.132,8.14c-0.819,0.122-1.385,0.885-1.262,1.705c0.111,0.745,0.751,1.279,1.481,1.279  c0.074,0,0.148-0.005,0.223-0.017c1.348-0.201,2.613-0.64,3.756-1.272c4.508,2.302,7.02,8.24,7.101,12.89  c0.077,4.393-1.943,8.65-5.272,11.111c-0.614,0.454-0.876,1.222-0.667,1.957c0.208,0.731,0.833,1.244,1.588,1.305  c0.333,0.027,0.665,0.041,0.998,0.041c1.832,0,3.65-0.41,5.386-1.101c-0.139,1.789-0.974,3.552-2.314,4.721  c-1.638,1.43-4.077,2.008-6.216,1.471c-0.696-0.175-1.424,0.082-1.856,0.653c-0.431,0.568-0.48,1.334-0.128,1.953  c0.852,1.495,2.12,2.666,3.692,3.497c-1.764,1.386-2.883,3.456-3.152,5.904c-0.338,3.063,0.697,6.302,2.702,8.452  c1.663,1.784,3.915,2.85,6.692,3.169c0.081,0.01,0.161,0.014,0.241,0.014c0.684,0,1.324-0.337,1.71-0.916  c0.427-0.641,0.459-1.456,0.084-2.127c-0.194-0.346-0.422-0.681-0.651-1.014c-0.368-0.534-0.686-0.995-0.75-1.414  c-0.17-1.119-0.022-1.954,0.454-2.552c1.223-1.536,4.68-1.797,7.458-2.007c1.45-0.11,2.82-0.213,3.929-0.478  c6.396-1.523,11.582-7.117,12.609-13.602C93.278,64.573,91.754,59.516,88.579,55.746z M21.907,66.669  c0.545,2.281,0.853,4.774,0.955,7.762c-0.357,0.042-0.73,0.077-1.133,0.103c-3.47,0.217-6.239-0.346-8.245-1.679  c-3.512-2.334-3.793-6.991-2.568-10.33c1.097-2.988,3.222-5.527,5.43-7.945c1.105,1.627,2.14,3.218,2.988,4.943  C20.452,61.797,21.318,64.202,21.907,66.669z M35.03,24.497c-0.032,0.073-0.071,0.142-0.101,0.216c-0.408,1.002-0.661,2.018-0.906,3  c-0.121,0.485-0.242,0.971-0.382,1.451c-0.309,1.059-0.854,2.01-1.576,2.751c-0.132,0.136-0.275,0.259-0.419,0.381L21.589,13.073  L35.03,24.497z M46.462,30.243c-0.299,0.409-0.508,0.84-0.692,1.221c-0.091,0.189-0.182,0.379-0.284,0.556  c-0.283,0.486-0.598,0.971-0.936,1.441c-0.676,0.941-1.44,1.825-2.271,2.628c-1.602,1.547-3.462,2.672-5.379,3.254  c-3.333,1.012-7.955,0.854-10.768-1.779c-0.385-0.361-0.721-0.782-1-1.25c0.354,0.111,0.713,0.199,1.075,0.265  c1.437,0.26,2.931,0.164,4.321-0.282c1.39-0.446,2.666-1.238,3.689-2.29c1.062-1.091,1.859-2.475,2.305-4.001  c0.151-0.518,0.282-1.042,0.413-1.567c0.229-0.92,0.446-1.79,0.773-2.594c1.353-3.324,5.363-4.567,8.457-3.852  c1.429,0.331,2.874,0.984,4.175,1.849c-0.939,1.871-1.634,3.808-2.107,5.335C47.535,29.289,46.897,29.648,46.462,30.243z   M69.025,50.011c-0.09-5.123-2.737-11.597-7.525-14.799c1.984-2.006,3.242-4.742,3.356-7.761c0.016-0.412,0.02-0.976-0.016-1.626  c4.397-0.088,8.366,1.805,10.807,5.227c4.737,6.642,4.655,15.983-0.199,22.714c-2.296,3.185-6.23,6.439-10.357,7.416  C67.638,58.163,69.097,54.13,69.025,50.011z M67.716,70.357c2.387-2.084,3.618-5.332,3.295-8.471  c2.759-1.685,5.164-3.999,6.87-6.364c2.955-4.098,4.357-9.036,4.232-13.916c2.202,3.254,3.479,7.198,3.568,11.363  c0.131,6.113-2.207,11.937-6.414,15.977c-1.242,1.193-2.618,2.211-4.089,3.025c-2.301,1.274-4.738,2.001-7.047,2.103  c-1.295,0.059-3.956-0.021-6.027-1.348C64.164,72.536,66.158,71.717,67.716,70.357z M89.597,68.63  c-0.843,5.317-5.095,9.904-10.342,11.153c-0.877,0.208-2.132,0.304-3.46,0.404c-3.535,0.267-7.541,0.57-9.579,3.131  c-1.01,1.271-1.371,2.909-1.072,4.872c0.089,0.582,0.291,1.088,0.535,1.544c-1.072-0.384-1.965-0.965-2.701-1.754  c-1.404-1.505-2.155-3.891-1.915-6.077c0.194-1.755,1.002-3.202,2.278-4.076c0.522-0.358,1.12-0.664,1.759-0.933  c0.759,0.115,1.542,0.193,2.369,0.193c0.261,0,0.525-0.006,0.792-0.018c2.77-0.122,5.664-0.978,8.368-2.475  c1.699-0.941,3.285-2.114,4.714-3.486c3.149-3.025,5.375-6.916,6.5-11.191C89.389,62.637,90.05,65.772,89.597,68.63z"/><path fill="#000000" d="M47.38,51.08c-0.218-0.507-0.808-0.743-1.314-0.523l-2.528,1.088c-0.428-0.645-0.994-1.203-1.675-1.63  l0.984-2.471c0.204-0.513-0.046-1.095-0.559-1.299c-0.514-0.204-1.095,0.046-1.299,0.559l-0.985,2.474  c-0.889-0.18-1.797-0.122-2.671,0.14l-1.04-2.416c-0.219-0.507-0.807-0.742-1.314-0.523c-0.507,0.218-0.741,0.807-0.523,1.314  l1.088,2.527c-0.792,0.604-1.422,1.398-1.8,2.347c-0.307,0.77,0.069,1.642,0.838,1.949c0.771,0.307,1.643-0.069,1.949-0.838  c0.523-1.313,2.018-1.957,3.329-1.433c1.313,0.523,1.956,2.016,1.433,3.328c-0.307,0.77,0.069,1.642,0.838,1.949  c0.182,0.073,0.37,0.107,0.555,0.107c0.596,0,1.16-0.358,1.394-0.945c0.434-1.09,0.495-2.236,0.249-3.301l2.529-1.088  C47.365,52.175,47.599,51.587,47.38,51.08z"/></svg>